<svg width="40" height="40" viewBox="0 0 40 40" fill="none" xmlns="http://www.w3.org/2000/svg">
<rect width="40" height="40" rx="13" fill="#0B1015"/>
<path d="M9.55111 22.5889C8.32444 22.5889 7.46222 21.94 7.08889 20.7311L8.17333 19.8689C8.30667 20.7222 8.71556 21.3622 9.53333 21.3622C10.1911 21.3622 10.5022 21.0689 10.5022 20.1089V16.5444H11.7733V20.2689C11.7733 21.94 10.9556 22.5889 9.55111 22.5889ZM15.4885 22.5889C14.1641 22.5889 13.3108 21.6556 13.3108 20.3222C13.3108 18.9978 14.1641 18.0556 15.4885 18.0556C16.8485 18.0556 17.7108 18.9978 17.7108 20.3222C17.7108 21.6556 16.8485 22.5889 15.4885 22.5889ZM15.5063 21.5578C16.0485 21.5578 16.4219 21.2111 16.4219 20.3222C16.4219 19.4244 16.0485 19.0867 15.5063 19.0867C14.973 19.0867 14.5997 19.4244 14.5997 20.3222C14.5997 21.2111 14.973 21.5578 15.5063 21.5578ZM20.5888 22.5H19.3177V16.5444H20.5888V19.3889C20.7133 18.6867 21.0688 18.0556 21.9755 18.0556C22.9888 18.0556 23.6555 18.8822 23.6555 20.3222C23.6555 21.7711 22.9888 22.5978 21.9222 22.5978C21.0155 22.5978 20.7044 21.9756 20.5888 21.2733V22.5ZM20.5888 20.5622C20.5888 21.2733 20.8822 21.6022 21.4155 21.6022C21.9933 21.6022 22.3577 21.1578 22.3577 20.3222C22.3577 19.4956 21.9933 19.0422 21.4155 19.0422C20.8822 19.0422 20.5888 19.38 20.5888 20.0911V20.5622ZM26.5393 22.5H25.2682V16.5444H26.5393V22.5ZM29.693 22.5H28.4219V18.1444H29.693V19.4067C29.8352 18.6956 30.253 18.0556 31.1508 18.0556C31.9774 18.0556 32.4841 18.5622 32.4841 19.46V22.5H31.213V19.9044C31.213 19.3711 31.0708 19.0422 30.493 19.0422C29.8885 19.0422 29.693 19.38 29.693 20.0911V22.5Z" fill="white"/>
</svg>
