<svg width="40" height="40" viewBox="0 0 40 40" fill="none" xmlns="http://www.w3.org/2000/svg">
<rect width="40" height="40" rx="20" fill="#171B24"/>
<path fill-rule="evenodd" clip-rule="evenodd" d="M20.0043 10C17.0703 10 14.6918 12.3886 14.6918 15.3352C14.6918 18.2817 17.0703 20.6703 20.0043 20.6703C22.9383 20.6703 25.3168 18.2817 25.3168 15.3352C25.3168 12.3886 22.9383 10 20.0043 10ZM20.0042 11.4473C22.1421 11.4473 23.8752 13.1878 23.8752 15.3348C23.8752 17.4818 22.1421 19.2223 20.0042 19.2223C17.8663 19.2223 16.1332 17.4818 16.1332 15.3348C16.1332 13.1878 17.8663 11.4473 20.0042 11.4473ZM17.83 22.8201C17.0523 22.8741 16.2662 22.9851 15.4908 23.1513C13.9942 23.4596 12.7969 24.0755 12.2872 25.0991C12.095 25.4994 11.9984 25.928 12 26.362C11.9994 26.7928 12.0953 27.2219 12.2806 27.6145C12.7699 28.6263 13.8278 29.1989 15.2562 29.5163L15.5121 29.5697C16.2665 29.7399 17.0528 29.8545 17.8445 29.9083C17.9119 29.928 18.0726 29.9464 18.248 29.9554L18.3922 29.9608C18.4664 29.9625 18.5506 29.9629 18.676 29.9629C19.8138 30.0255 20.9934 30.0073 22.1675 29.9074C22.7932 29.8646 23.4231 29.7827 24.0477 29.6628L24.5151 29.5658C26.0576 29.2615 27.2126 28.6828 27.7186 27.6157C28.0937 26.8234 28.0937 25.9039 27.7188 25.112C27.214 24.0475 26.0737 23.4736 24.5034 23.1501C23.8873 23.0186 23.2612 22.9213 22.6307 22.8591L22.1697 22.8201C20.7259 22.6928 19.2738 22.6928 17.83 22.8201ZM22.0434 24.2617L22.0561 24.2627C22.7798 24.3137 23.499 24.4152 24.2085 24.5667C25.375 24.807 26.1665 25.2054 26.417 25.7335C26.6055 26.1317 26.6055 26.5945 26.4168 26.9931C26.1828 27.4866 25.4719 27.8678 24.4443 28.1008L24.2194 28.1485C23.4959 28.3099 22.779 28.414 22.0574 28.4634C20.9378 28.5586 19.8248 28.5758 18.7146 28.5158L18.321 28.509C18.2118 28.5035 18.1197 28.4929 18.0343 28.4758C17.3586 28.4248 16.7505 28.3441 16.1601 28.2271L15.8076 28.1524C14.6376 27.9231 13.839 27.523 13.5801 26.9877C13.4895 26.7957 13.4411 26.579 13.4414 26.3597C13.4406 26.1415 13.4884 25.9297 13.5811 25.7366C13.8328 25.2311 14.6791 24.7958 15.7859 24.5677C16.5006 24.4146 17.2195 24.3131 17.9428 24.2628C19.3159 24.1418 20.6836 24.1418 22.0434 24.2617Z" fill="white"/>
<path d="M15.4908 23.1513L15.5412 23.3962L15.5432 23.3958L15.4908 23.1513ZM17.83 22.8201L17.8474 23.0696L17.852 23.0692L17.83 22.8201ZM12.2872 25.0991L12.0634 24.9877L12.0619 24.9909L12.2872 25.0991ZM12 26.362L12.25 26.3623L12.25 26.361L12 26.362ZM12.2806 27.6145L12.0545 27.7212L12.0556 27.7234L12.2806 27.6145ZM15.2562 29.5163L15.202 29.7604L15.2052 29.761L15.2562 29.5163ZM15.5121 29.5697L15.5672 29.3258L15.5632 29.325L15.5121 29.5697ZM17.8445 29.9083L17.9148 29.6684L17.8886 29.6607L17.8614 29.6589L17.8445 29.9083ZM18.248 29.9554L18.2352 30.2051L18.2386 30.2052L18.248 29.9554ZM18.3922 29.9608L18.3829 30.2106L18.3864 30.2107L18.3922 29.9608ZM18.676 29.9629L18.6898 29.7129H18.676V29.9629ZM22.1675 29.9074L22.1504 29.6579L22.1463 29.6583L22.1675 29.9074ZM24.0477 29.6628L24.0949 29.9084L24.0986 29.9076L24.0477 29.6628ZM24.5151 29.5658L24.4667 29.3205L24.4642 29.321L24.5151 29.5658ZM27.7186 27.6157L27.9445 27.7228L27.9445 27.7227L27.7186 27.6157ZM27.7188 25.112L27.9447 25.005L27.9447 25.0049L27.7188 25.112ZM24.5034 23.1501L24.4512 23.3946L24.4529 23.395L24.5034 23.1501ZM22.6307 22.8591L22.6552 22.6103L22.6517 22.61L22.6307 22.8591ZM22.1697 22.8201L22.1477 23.0692L22.1486 23.0692L22.1697 22.8201ZM22.0561 24.2627L22.0364 24.5119L22.0386 24.5121L22.0561 24.2627ZM22.0434 24.2617L22.0215 24.5108L22.0237 24.5109L22.0434 24.2617ZM24.2085 24.5667L24.1563 24.8112L24.1581 24.8116L24.2085 24.5667ZM26.417 25.7335L26.6429 25.6265L26.6429 25.6264L26.417 25.7335ZM26.4168 26.9931L26.6427 27.1002L26.6427 27.1001L26.4168 26.9931ZM24.4443 28.1008L24.4961 28.3454L24.4996 28.3446L24.4443 28.1008ZM24.2194 28.1485L24.1676 27.9039L24.1649 27.9045L24.2194 28.1485ZM22.0574 28.4634L22.0403 28.214L22.0362 28.2143L22.0574 28.4634ZM18.7146 28.5158L18.7281 28.266L18.7189 28.2658L18.7146 28.5158ZM18.321 28.509L18.3083 28.7589L18.3168 28.759L18.321 28.509ZM18.0343 28.4758L18.0836 28.2307L18.0685 28.2277L18.0532 28.2265L18.0343 28.4758ZM16.1601 28.2271L16.1084 28.4717L16.1115 28.4723L16.1601 28.2271ZM15.8076 28.1524L15.8594 27.9078L15.8557 27.9071L15.8076 28.1524ZM13.5801 26.9877L13.354 27.0944L13.355 27.0965L13.5801 26.9877ZM13.4414 26.3597L13.6914 26.36L13.6914 26.3587L13.4414 26.3597ZM13.5811 25.7366L13.3572 25.6251L13.3557 25.6284L13.5811 25.7366ZM15.7859 24.5677L15.8364 24.8126L15.8383 24.8122L15.7859 24.5677ZM17.9428 24.2628L17.9602 24.5122L17.9648 24.5118L17.9428 24.2628ZM14.9418 15.3352C14.9418 12.5257 17.2093 10.25 20.0043 10.25V9.75C16.9312 9.75 14.4418 12.2516 14.4418 15.3352H14.9418ZM20.0043 20.4203C17.2093 20.4203 14.9418 18.1446 14.9418 15.3352H14.4418C14.4418 18.4188 16.9312 20.9203 20.0043 20.9203V20.4203ZM25.0668 15.3352C25.0668 18.1446 22.7992 20.4203 20.0043 20.4203V20.9203C23.0774 20.9203 25.5668 18.4188 25.5668 15.3352H25.0668ZM20.0043 10.25C22.7992 10.25 25.0668 12.5257 25.0668 15.3352H25.5668C25.5668 12.2516 23.0774 9.75 20.0043 9.75V10.25ZM24.1252 15.3348C24.1252 13.0507 22.2811 11.1973 20.0042 11.1973V11.6973C22.003 11.6973 23.6252 13.3248 23.6252 15.3348H24.1252ZM20.0042 19.4723C22.2811 19.4723 24.1252 17.6188 24.1252 15.3348H23.6252C23.6252 17.3447 22.003 18.9723 20.0042 18.9723V19.4723ZM15.8832 15.3348C15.8832 17.6188 17.7272 19.4723 20.0042 19.4723V18.9723C18.0054 18.9723 16.3832 17.3447 16.3832 15.3348H15.8832ZM20.0042 11.1973C17.7272 11.1973 15.8832 13.0507 15.8832 15.3348H16.3832C16.3832 13.3248 18.0054 11.6973 20.0042 11.6973V11.1973ZM15.5432 23.3958C16.3071 23.232 17.0816 23.1227 17.8474 23.0695L17.8127 22.5707C17.0231 22.6255 16.2253 22.7382 15.4384 22.9069L15.5432 23.3958ZM12.511 25.2105C12.9681 24.2926 14.0671 23.6998 15.5412 23.3962L15.4404 22.9065C13.9212 23.2194 12.6257 23.8585 12.0634 24.9877L12.511 25.2105ZM12.25 26.361C12.2485 25.9653 12.3366 25.574 12.5126 25.2073L12.0619 24.9909C11.8535 25.4249 11.7482 25.8908 11.75 26.3629L12.25 26.361ZM12.5067 27.5078C12.3371 27.1486 12.2495 26.756 12.25 26.3623L11.75 26.3616C11.7494 26.8296 11.8535 27.2953 12.0545 27.7212L12.5067 27.5078ZM15.3105 29.2723C13.9083 28.9607 12.9449 28.4139 12.5057 27.5057L12.0556 27.7234C12.595 28.8388 13.7473 29.4371 15.202 29.7604L15.3105 29.2723ZM15.5632 29.325L15.3073 29.2716L15.2052 29.761L15.4611 29.8144L15.5632 29.325ZM17.8614 29.6589C17.0824 29.6059 16.3088 29.4932 15.5671 29.3258L15.4571 29.8136C16.2242 29.9867 17.0233 30.1031 17.8275 30.1577L17.8614 29.6589ZM18.2607 29.7057C18.0833 29.6967 17.9503 29.6788 17.9148 29.6684L17.7742 30.1482C17.8734 30.1773 18.0618 30.1962 18.2352 30.2051L18.2607 29.7057ZM18.4016 29.711L18.2573 29.7056L18.2386 30.2052L18.3829 30.2106L18.4016 29.711ZM18.676 29.7129C18.5507 29.7129 18.469 29.7125 18.398 29.7109L18.3864 30.2107C18.4638 30.2125 18.5505 30.2129 18.676 30.2129V29.7129ZM22.1463 29.6583C20.9836 29.7572 19.8157 29.7753 18.6897 29.7133L18.6623 30.2126C19.812 30.2758 21.0033 30.2574 22.1887 30.1565L22.1463 29.6583ZM24.0006 29.4173C23.3858 29.5353 22.7659 29.6158 22.1505 29.6579L22.1846 30.1568C22.8205 30.1133 23.4604 30.0301 24.0949 29.9084L24.0006 29.4173ZM24.4642 29.321L23.9969 29.4181L24.0986 29.9076L24.5659 29.8106L24.4642 29.321ZM27.4927 27.5086C27.0393 28.4647 25.9877 29.0205 24.4667 29.3205L24.5635 29.8111C26.1275 29.5025 27.3858 28.901 27.9445 27.7228L27.4927 27.5086ZM27.4928 25.219C27.8357 25.9432 27.8357 26.7841 27.4926 27.5087L27.9445 27.7227C28.3518 26.8626 28.3518 25.8647 27.9447 25.005L27.4928 25.219ZM24.4529 23.395C26.0037 23.7145 27.0407 24.2655 27.4929 25.2191L27.9447 25.0049C27.3873 23.8295 26.1437 23.2328 24.5538 22.9053L24.4529 23.395ZM22.6061 23.1079C23.2274 23.1692 23.8442 23.2651 24.4512 23.3946L24.5556 22.9057C23.9303 22.7722 23.295 22.6734 22.6552 22.6103L22.6061 23.1079ZM22.1486 23.0692L22.6096 23.1082L22.6517 22.61L22.1908 22.571L22.1486 23.0692ZM17.852 23.0692C19.2812 22.9431 20.7186 22.9431 22.1477 23.0692L22.1917 22.5711C20.7333 22.4424 19.2665 22.4424 17.8081 22.5711L17.852 23.0692ZM22.0759 24.0135L22.0632 24.0125L22.0237 24.5109L22.0364 24.5119L22.0759 24.0135ZM24.2607 24.3222C23.5398 24.1683 22.809 24.0651 22.0737 24.0133L22.0386 24.5121C22.7506 24.5622 23.4582 24.6622 24.1563 24.8112L24.2607 24.3222ZM26.6429 25.6264C26.485 25.2934 26.1712 25.0289 25.7719 24.8205C25.3695 24.6106 24.8558 24.4448 24.259 24.3218L24.1581 24.8116C24.7277 24.9289 25.193 25.0825 25.5406 25.2638C25.8913 25.4468 26.0986 25.6455 26.1911 25.8406L26.6429 25.6264ZM26.6427 27.1001C26.8635 26.6338 26.8636 26.0925 26.6429 25.6265L26.191 25.8405C26.3475 26.171 26.3475 26.5552 26.1908 26.8861L26.6427 27.1001ZM24.4996 28.3446C25.028 28.2248 25.4869 28.0644 25.8494 27.8632C26.2096 27.6634 26.4949 27.4119 26.6427 27.1002L26.1909 26.886C26.1047 27.0678 25.9175 27.2536 25.6068 27.426C25.2986 27.5971 24.8882 27.7438 24.3891 27.857L24.4996 28.3446ZM24.2712 28.393L24.4961 28.3454L24.3926 27.8563L24.1676 27.9039L24.2712 28.393ZM22.0745 28.7128C22.8089 28.6625 23.5382 28.5566 24.2738 28.3925L24.1649 27.9045C23.4535 28.0632 22.7492 28.1654 22.0403 28.214L22.0745 28.7128ZM18.7011 28.7654C19.8229 28.8261 20.9475 28.8087 22.0786 28.7125L22.0362 28.2143C20.9281 28.3086 19.8267 28.3256 18.7281 28.2662L18.7011 28.7654ZM18.3168 28.759L18.7104 28.7658L18.7189 28.2658L18.3253 28.2591L18.3168 28.759ZM17.9851 28.7209C18.0854 28.741 18.1901 28.7527 18.3083 28.7587L18.3338 28.2594C18.2334 28.2542 18.154 28.2448 18.0836 28.2307L17.9851 28.7209ZM16.1115 28.4723C16.7129 28.5915 17.331 28.6734 18.0155 28.7251L18.0532 28.2265C17.3862 28.1762 16.7882 28.0967 16.2087 27.9818L16.1115 28.4723ZM15.7558 28.397L16.1084 28.4716L16.2119 27.9825L15.8594 27.9078L15.7558 28.397ZM13.355 27.0965C13.5172 27.4319 13.8341 27.6983 14.2374 27.9069C14.6434 28.1169 15.1602 28.2803 15.7595 28.3978L15.8557 27.9071C15.285 27.7952 14.8175 27.644 14.467 27.4627C14.1138 27.2801 13.9019 27.0788 13.8052 26.8788L13.355 27.0965ZM13.1914 26.3593C13.1911 26.6151 13.2474 26.8683 13.354 27.0944L13.8062 26.881C13.7317 26.723 13.6912 26.543 13.6914 26.36L13.1914 26.3593ZM13.3557 25.6284C13.2465 25.8559 13.1905 26.1051 13.1914 26.3606L13.6914 26.3587C13.6907 26.178 13.7302 26.0035 13.8064 25.8448L13.3557 25.6284ZM15.7355 24.3229C15.1652 24.4404 14.6535 24.6128 14.2465 24.8268C13.8457 25.0376 13.5172 25.304 13.3573 25.6251L13.8048 25.848C13.8966 25.6637 14.1172 25.4597 14.4792 25.2694C14.8349 25.0824 15.2997 24.9232 15.8364 24.8126L15.7355 24.3229ZM17.9255 24.0134C17.1903 24.0645 16.4597 24.1677 15.7335 24.3233L15.8383 24.8122C16.5415 24.6615 17.2487 24.5617 17.9602 24.5122L17.9255 24.0134ZM22.0654 24.0127C20.6909 23.8914 19.3085 23.8914 17.9209 24.0137L17.9648 24.5118C19.3233 24.3921 20.6763 24.3921 22.0215 24.5107L22.0654 24.0127Z" fill="white"/>
</svg>
