<svg width="32" height="32" viewBox="0 0 32 32" fill="none" xmlns="http://www.w3.org/2000/svg">
<g clip-path="url(#clip0_2032_111488)">
<path d="M32 15.9605C32 20.1218 30.3894 23.9144 27.7756 26.7588C27.6436 26.9169 27.5116 27.0486 27.3531 27.2066C26.7987 27.7597 26.2178 28.2601 25.6106 28.7342C24.7393 29.3926 23.7888 29.9457 22.8119 30.4198C22.6535 30.4988 22.4686 30.5778 22.3102 30.6568C21.7294 30.8938 21.1485 31.1309 20.5149 31.2889C20.198 31.3942 19.8812 31.4733 19.5644 31.5523C18.429 31.8156 17.2673 31.9473 16.0528 31.9473H16C14.8911 31.9473 13.835 31.842 12.7789 31.6313C12.33 31.5523 11.9076 31.4206 11.4851 31.3152C10.8779 31.1309 10.2706 30.9202 9.68977 30.6831C9.55776 30.6305 9.39934 30.5514 9.26733 30.4988C8.26403 30.0247 7.31353 29.4716 6.41584 28.8132C5.78218 28.3391 5.17492 27.8123 4.62046 27.2593C4.48845 27.1276 4.33003 26.9695 4.19802 26.8115C1.61056 23.9407 0 20.1481 0 15.9605C0 7.13745 7.15512 0 16 0C24.8449 0 32 7.13745 32 15.9605Z" fill="#9DD961"/>
<path d="M25.9212 15.6332C26.5348 15.1263 26.4814 14.2459 26.1613 13.4989C25.8412 12.7519 25.0141 12.2717 24.2138 12.3784C24.854 11.9248 24.774 11.0178 24.4005 10.3241C24.027 9.63048 23.1199 9.28366 22.3996 9.55044C23.0933 9.01687 23.0933 8.1098 22.6664 7.3628C22.4797 7.04266 22.1862 6.80255 21.8661 6.64248C21.6793 5.92216 21.2524 5.2552 20.6655 4.80166C20.1853 4.45484 19.5984 4.26809 18.9848 4.21473C18.2911 3.73452 17.4107 3.46773 16.6637 3.81455C14.5561 3.06755 12.0217 3.68116 10.5277 5.33523C10.2876 5.60202 10.0475 5.92216 9.96742 6.29566C9.91406 6.66916 10.0741 7.09602 10.421 7.22941C9.4872 6.77587 8.66017 7.12269 7.93985 7.89637C7.21952 8.64337 7.05945 9.89726 7.56635 10.8043C6.76599 10.831 6.09903 11.7648 5.91228 12.5651C5.72553 13.3388 6.09903 14.2459 6.81935 14.6194C5.83224 14.7261 5.45874 16.0867 5.7522 17.0471C5.93895 17.6607 6.55256 18.0876 7.19285 18.1943C6.6326 18.4611 6.15238 18.9946 5.93895 19.5015C5.59213 20.3286 5.85892 21.369 6.60592 21.8759C7.32624 22.4095 8.42006 22.3295 9.08702 21.7425C8.87359 22.3561 9.32713 23.2099 9.91406 23.53C10.501 23.8235 11.2213 23.7701 11.8349 23.5033C12.4485 23.2365 12.9821 22.8097 13.489 22.4095C13.2756 22.5429 13.5957 22.863 13.6757 23.0765C13.7824 23.3166 13.9692 23.4766 14.1826 23.5834C15.3832 24.277 17.0906 23.8768 17.8376 22.703C17.8109 23.53 18.4245 24.3037 19.2516 24.3304C20.0786 24.357 20.8523 23.61 20.8523 22.783C21.3858 23.5834 22.3729 23.7968 23.1199 23.2099C23.8669 22.6229 23.9737 21.369 23.3334 20.6487C24.027 21.2623 25.2542 21.6625 25.8412 20.9155C26.4281 20.1685 26.2413 18.968 25.4677 18.4344C26.3214 18.6212 27.3352 18.2743 27.4419 17.3939C27.5486 16.5669 26.8016 15.6598 25.9212 15.6332Z" fill="#2E2E2E"/>
<path d="M19.0646 25.6376C19.118 27.3984 17.7307 28.8657 16.0233 28.8657C14.3425 28.8657 12.9819 27.4518 12.9819 25.7443C12.9819 25.7176 12.9819 25.6643 12.9819 25.6376L13.3288 20.9689L13.3821 20.3553L13.5955 17.4473H18.5044L18.7178 20.462L18.7712 21.1289L19.0646 25.6376Z" fill="#F5F5FF" stroke="#2E2E2E" stroke-width="0.266786" stroke-miterlimit="10" stroke-linecap="round" stroke-linejoin="round"/>
<path d="M18.9045 23.3433C17.3571 23.53 15.623 22.783 14.4225 21.289C13.9423 20.6754 13.6221 20.0084 13.4087 19.3148L13.5421 17.4473H18.4509L18.6644 20.462L18.7177 21.1289L18.9045 23.3433Z" fill="#2E2E2E"/>
<path d="M20.5588 13.072C19.9452 14.0591 19.9986 15.233 20.6922 15.6865C21.3859 16.14 22.453 15.7132 23.0666 14.7261C23.6802 13.739 23.6269 12.5651 22.9332 12.1116C22.2129 11.658 21.1724 12.0849 20.5588 13.072Z" fill="#F5F5FF" stroke="#2E2E2E" stroke-width="0.266786" stroke-miterlimit="10" stroke-linecap="round" stroke-linejoin="round"/>
<path d="M22.3994 12.5918C22.6929 12.6985 22.933 12.992 22.9863 13.3121C23.0397 13.6323 22.9063 13.9791 22.6395 14.1658" stroke="#2E2E2E" stroke-width="0.266786" stroke-miterlimit="10" stroke-linecap="round" stroke-linejoin="round"/>
<path d="M11.4079 13.072C12.0215 14.0591 11.9682 15.233 11.2745 15.6865C10.5809 16.14 9.51375 15.7132 8.90014 14.7261C8.28654 13.739 8.33989 12.5651 9.03354 12.1116C9.75386 11.658 10.7943 12.0849 11.4079 13.072Z" fill="#F5F5FF" stroke="#2E2E2E" stroke-width="0.266786" stroke-miterlimit="10" stroke-linecap="round" stroke-linejoin="round"/>
<path d="M9.56727 12.5918C9.27381 12.6985 9.0337 12.992 8.98034 13.3121C8.92699 13.6323 9.06038 13.9791 9.32717 14.1658" stroke="#2E2E2E" stroke-width="0.266786" stroke-miterlimit="10" stroke-linecap="round" stroke-linejoin="round"/>
<path d="M22.1326 11.2312C22.1326 11.3112 22.1326 11.4179 22.1326 11.498C22.1326 11.7647 22.1059 12.0048 22.0525 12.2716L22.0259 12.6185L21.9992 12.8052L21.9725 13.0987C21.9458 13.2587 21.9458 13.4455 21.9191 13.6056C21.9191 13.7123 21.8925 13.819 21.8925 13.9257C21.8658 14.3526 21.8391 14.7794 21.7858 15.2063V15.233C21.7591 15.313 21.7591 15.393 21.7324 15.4731C21.7057 15.5531 21.7057 15.6598 21.679 15.7398C21.6524 15.8732 21.599 16.0066 21.5723 16.1133C21.5457 16.1667 21.5456 16.1934 21.519 16.2467C21.4923 16.3535 21.4389 16.4335 21.4123 16.5402C21.3055 16.7803 21.1721 17.0204 21.0121 17.2872C20.3718 18.301 19.3847 19.2081 18.4243 19.8217C18.4243 19.8217 18.4243 19.8217 18.3976 19.8217C18.2909 19.9017 18.1575 19.9817 18.0508 20.0351C16.8502 20.7021 15.4363 20.7287 14.209 20.1685C13.9423 20.0618 13.7022 19.9284 13.462 19.7683C12.5016 19.1547 11.7013 18.2743 11.0877 17.2872C11.0343 17.2072 11.0076 17.1538 10.9543 17.0738C10.9276 17.0471 10.9009 16.9937 10.9009 16.9671C10.8742 16.9137 10.8209 16.8337 10.7942 16.7803C10.6875 16.6202 10.6074 16.4335 10.5274 16.2734C10.5007 16.2201 10.4741 16.1667 10.4741 16.14C10.1806 15.4464 10.0739 14.6727 10.0205 13.9257C10.0205 13.819 9.99384 13.6856 9.99384 13.5789C9.99384 13.4455 9.96716 13.3121 9.96716 13.1787L9.9138 12.8052C9.9138 12.7785 9.88712 12.7252 9.88712 12.6985C9.88712 12.6451 9.86044 12.6185 9.86044 12.5651C9.83376 12.405 9.80709 12.245 9.78041 12.0849C9.75373 11.8181 9.72705 11.5246 9.72705 11.2312C9.72705 11.2045 9.72705 11.1778 9.72705 11.1511C9.72705 10.9644 9.72705 10.7776 9.75373 10.6176C9.78041 10.4575 9.78041 10.3241 9.80709 10.164C9.94048 9.25696 10.2606 8.42992 10.7142 7.7096C10.8209 7.52285 10.9543 7.36278 11.0877 7.17603C12.3949 5.49528 14.6359 4.50817 16.9036 4.855C18.7444 5.14846 20.2117 6.26896 21.1188 7.73628C21.1455 7.76296 21.1721 7.81632 21.1988 7.84299C21.599 8.53664 21.8925 9.31031 22.0259 10.1374C22.0259 10.1374 22.0259 10.1373 22.0259 10.164C22.0525 10.2974 22.0792 10.4575 22.0792 10.6176C22.1059 10.8043 22.1059 10.9644 22.1059 11.1511C22.1326 11.1778 22.1326 11.2045 22.1326 11.2312Z" fill="#F5F5FF" stroke="#2E2E2E" stroke-width="0.271374" stroke-miterlimit="10" stroke-linecap="round" stroke-linejoin="round"/>
<path d="M16.7169 3.97464C17.3838 4.58824 17.5439 5.60203 17.0904 6.37571C16.6368 7.1227 15.623 7.54956 14.7426 7.30946C15.0094 7.70963 14.796 8.34992 14.5025 8.7501C14.2091 9.15027 13.6488 9.33702 13.1686 9.23031C13.5955 10.5376 12.7418 12.0582 11.4879 12.7519C11.8347 13.3922 11.6479 14.4326 11.3011 15.0729C10.9543 15.7132 10.2607 16.1667 9.51365 16.2734C10.0205 16.8337 10.1806 17.7141 9.91383 18.4077C9.64704 19.1014 8.98008 19.6349 8.23308 19.7417C7.61947 19.8484 6.68572 19.6883 6.39226 19.1547C6.12548 18.6212 6.28555 17.9008 6.79244 17.5273C6.49897 16.9404 6.3389 16.4068 6.28555 15.7666C6.23219 14.9662 6.39226 14.1658 6.87248 13.4989C7.32601 12.8319 8.09969 12.3517 8.92672 12.2983C8.2064 11.2846 8.04633 10.084 8.55322 8.96352C9.08679 7.84303 10.234 7.01599 11.4879 6.82924C11.4879 6.1356 11.7547 5.44196 12.3149 5.0151C12.8751 4.56156 13.6755 4.40149 14.3958 4.53489C14.5826 4.10803 15.2495 3.86792 15.7031 3.78789C16.1833 3.70785 16.6902 3.8946 16.9836 4.24142L16.7169 3.97464Z" fill="#2E2E2E"/>
<path d="M17.2772 4.29478C16.797 5.1485 16.8237 6.24232 17.3573 7.06935C17.8908 7.89639 18.878 8.3766 19.8384 8.29657C19.3848 8.80346 19.4649 9.63049 19.8917 10.1641C20.3186 10.6976 21.119 10.8577 21.7059 10.5376C21.4124 10.7777 21.0923 11.1779 21.0656 11.578C21.0389 11.9782 21.2523 12.4051 21.6258 12.5118C21.9993 12.6185 22.4796 12.3517 22.4796 11.9515C22.4796 10.831 23.1732 9.79056 22.7997 8.7501C22.4262 7.70964 21.5992 6.82924 20.5587 6.42907C20.1852 4.98842 18.7446 4.2681 17.2772 4.29478Z" fill="#2E2E2E"/>
<path d="M13.0622 15.8466C14.2704 15.8466 15.2498 14.8671 15.2498 13.6589C15.2498 12.4507 14.2704 11.4713 13.0622 11.4713C11.854 11.4713 10.8745 12.4507 10.8745 13.6589C10.8745 14.8671 11.854 15.8466 13.0622 15.8466Z" stroke="#2E2E2E" stroke-width="0.266786" stroke-miterlimit="10" stroke-linecap="round" stroke-linejoin="round"/>
<path d="M19.0382 15.8466C20.2464 15.8466 21.2259 14.8671 21.2259 13.6589C21.2259 12.4507 20.2464 11.4713 19.0382 11.4713C17.83 11.4713 16.8506 12.4507 16.8506 13.6589C16.8506 14.8671 17.83 15.8466 19.0382 15.8466Z" stroke="#2E2E2E" stroke-width="0.266786" stroke-miterlimit="10" stroke-linecap="round" stroke-linejoin="round"/>
<path d="M15.2231 13.4188C15.4633 13.2854 15.73 13.2054 16.0502 13.2054C16.3436 13.2054 16.6371 13.2854 16.8772 13.4188" stroke="#2E2E2E" stroke-width="0.266786" stroke-miterlimit="10" stroke-linecap="round" stroke-linejoin="round"/>
<path d="M10.8747 13.6589L9.64746 12.0315" stroke="#2E2E2E" stroke-width="0.266786" stroke-miterlimit="10" stroke-linecap="round" stroke-linejoin="round"/>
<path d="M21.1724 13.6589L22.3996 12.0315" stroke="#2E2E2E" stroke-width="0.266786" stroke-miterlimit="10" stroke-linecap="round" stroke-linejoin="round"/>
<path d="M17.064 11.4446C17.1974 11.1511 17.4375 10.911 17.7043 10.751C17.9977 10.5909 18.2912 10.5109 18.6113 10.5109C18.9315 10.5109 19.2516 10.5642 19.5451 10.6976C19.8385 10.831 20.1053 11.0444 20.2387 11.3379L19.385 11.3112C19.1182 11.3112 18.8781 11.3112 18.638 11.3112C18.3979 11.3112 18.1578 11.3379 17.891 11.3646C17.6509 11.3913 17.3841 11.4179 17.064 11.4446Z" fill="#2E2E2E"/>
<path d="M14.9832 11.4446C14.663 11.4179 14.3962 11.3913 14.1295 11.3646C13.8627 11.3379 13.6226 11.3379 13.3825 11.3112C13.1423 11.3112 12.9022 11.3112 12.6355 11.3112L11.7817 11.3379C11.9418 11.0444 12.2086 10.831 12.4754 10.6976C12.7688 10.5642 13.089 10.5109 13.4091 10.5109C13.7293 10.5109 14.0494 10.6176 14.3162 10.751C14.6097 10.911 14.8498 11.1511 14.9832 11.4446Z" fill="#2E2E2E"/>
<path d="M17.2243 13.6056C17.2776 13.4722 17.3577 13.3655 17.411 13.2321C17.5711 12.992 17.7578 12.7785 17.9979 12.6451C18.238 12.4851 18.5582 12.4317 18.8517 12.4317C19.1451 12.4584 19.4386 12.5384 19.6787 12.6718C19.8121 12.7518 19.9188 12.8319 20.0255 12.9386C20.1322 13.0453 20.2123 13.152 20.2656 13.2854C20.2656 13.3121 20.2656 13.3655 20.2123 13.3655C20.1856 13.3655 20.1856 13.3655 20.1589 13.3655C20.0255 13.3121 19.9455 13.2321 19.8388 13.152C19.732 13.072 19.6253 13.0186 19.5186 12.9653C19.3052 12.8586 19.0651 12.7785 18.825 12.7785C18.5849 12.7518 18.3448 12.8052 18.1313 12.9119C17.9179 13.0186 17.7312 13.1787 17.5444 13.3655C17.4644 13.4722 17.3843 13.6056 17.3043 13.7123C17.2776 13.739 17.2509 13.739 17.2243 13.7123C17.2243 13.6589 17.1976 13.6322 17.2243 13.6056Z" fill="#2E2E2E"/>
<path d="M18.2112 13.1253C18.2379 12.8586 18.478 12.6451 18.7448 12.6718C19.0116 12.6985 19.225 12.9386 19.1983 13.2054C19.1717 13.4722 18.9316 13.6856 18.6648 13.6589C18.398 13.6322 18.1846 13.3921 18.2112 13.1253Z" fill="#2E2E2E"/>
<path d="M19.6787 13.5789C19.8655 13.5255 20.0255 13.4455 20.1856 13.3388" stroke="#2E2E2E" stroke-width="0.266786" stroke-miterlimit="10" stroke-linecap="round" stroke-linejoin="round"/>
<path d="M14.7432 13.6856C14.6632 13.5789 14.5832 13.4455 14.5031 13.3388C14.3431 13.152 14.1296 12.9919 13.9162 12.8852C13.7028 12.7785 13.4627 12.7252 13.2226 12.7518C12.9825 12.7785 12.7423 12.8319 12.5289 12.9386C12.4222 12.9919 12.3155 13.072 12.2088 13.1253C12.1021 13.2054 12.022 13.2854 11.8886 13.3388C11.862 13.3654 11.8086 13.3388 11.8086 13.3121C11.8086 13.2854 11.8086 13.2854 11.8086 13.2587C11.8353 13.1253 11.942 12.9919 12.0487 12.9119C12.1554 12.8052 12.2621 12.7252 12.3955 12.6451C12.6356 12.4851 12.9291 12.405 13.2226 12.405C13.516 12.3783 13.8095 12.4584 14.0763 12.6184C14.3431 12.7518 14.5298 12.9919 14.6632 13.2054C14.7166 13.3388 14.7966 13.4455 14.8499 13.5789C14.8499 13.6056 14.8499 13.6322 14.8233 13.6589C14.7699 13.7123 14.7432 13.6856 14.7432 13.6856Z" fill="#2E2E2E"/>
<path d="M13.8365 13.1253C13.8099 12.8586 13.5697 12.6451 13.303 12.6718C13.0362 12.6985 12.8227 12.9386 12.8494 13.2054C12.8761 13.4722 13.1162 13.6856 13.383 13.6589C13.6765 13.6322 13.8632 13.3921 13.8365 13.1253Z" fill="#2E2E2E"/>
<path d="M12.3687 13.5789C12.182 13.5255 12.0219 13.4455 11.8618 13.3388" stroke="#2E2E2E" stroke-width="0.266786" stroke-miterlimit="10" stroke-linecap="round" stroke-linejoin="round"/>
<path d="M15.1699 15.8199C15.3834 15.5531 15.7035 15.393 16.0236 15.393C16.3438 15.393 16.6639 15.5531 16.8773 15.7932" stroke="#2E2E2E" stroke-width="0.24747" stroke-miterlimit="10" stroke-linecap="round" stroke-linejoin="round"/>
<path d="M16.0769 17.6607C16.2903 17.6607 16.5037 17.634 16.7438 17.6074C16.7972 17.6074 17.4642 17.5007 17.4642 17.474C17.4642 17.474 17.1173 17.2072 17.0106 17.1271L16.9573 17.0738C16.8239 16.9671 16.7172 16.8604 16.5304 16.7803C16.3703 16.727 16.1569 16.7537 16.0502 16.887C15.9435 16.7537 15.7301 16.727 15.57 16.7537C15.4099 16.807 15.2765 16.9137 15.1431 17.0204L15.0898 17.0738C14.9831 17.1805 14.6362 17.4206 14.6362 17.4206C14.6362 17.474 15.1965 17.5807 15.2498 17.5807C15.4899 17.6074 15.7301 17.634 15.9702 17.634C15.9968 17.6607 16.0235 17.6607 16.0769 17.6607Z" fill="#2E2E2E"/>
<path d="M15.25 18.0876C15.7302 18.381 16.3972 18.381 16.8774 18.1142L15.25 18.0876Z" fill="#F5F5FF"/>
<path d="M15.25 18.0876C15.7302 18.381 16.3972 18.381 16.8774 18.1142" stroke="#2E2E2E" stroke-width="0.271374" stroke-miterlimit="10" stroke-linecap="round" stroke-linejoin="round"/>
<path d="M10.3412 29.9595C8.76713 29.3726 7.29981 28.5189 5.99256 27.5051C5.72578 27.2917 5.43231 27.0516 5.16553 26.8115C5.48567 26.438 5.88585 26.1445 6.31271 25.9577C6.47278 25.8777 6.63285 25.8243 6.79292 25.771C7.0597 25.691 7.32649 25.6643 7.59328 25.6643C7.88674 25.6643 8.20688 25.7176 8.50035 25.8243C8.71377 25.9044 8.9272 26.0111 9.08727 26.1178C9.22067 26.1978 9.35406 26.3046 9.46077 26.4113C10.3678 27.2383 10.7147 28.6256 10.3412 29.9595Z" fill="#F5F5FF" stroke="#2E2E2E" stroke-width="0.266786" stroke-miterlimit="10" stroke-linecap="round" stroke-linejoin="round"/>
<path d="M11.5149 29.9862L11.3815 30.333C11.0347 30.2263 10.6879 30.1196 10.341 29.9862C8.76701 29.3993 7.29969 28.5456 5.99244 27.5318C5.72566 27.3184 5.43219 27.0782 5.16541 26.8381C4.97866 26.6781 4.81859 26.518 4.63184 26.3312C5.37884 25.0774 6.68608 24.3304 8.04669 24.3304C8.12673 24.3304 8.23344 24.3304 8.31348 24.3304C8.63362 24.357 8.95376 24.4104 9.27391 24.5438C11.4615 25.2641 12.4753 27.7986 11.5149 29.9862Z" fill="#2E2E2E"/>
<path d="M26.0813 27.5318C24.8007 28.5456 23.3334 29.3726 21.786 29.9595C21.3058 28.1987 22.0795 26.3579 23.6269 25.8243C23.9203 25.7176 24.2405 25.6643 24.5339 25.6643C24.8007 25.6643 25.0675 25.691 25.3343 25.771C25.521 25.8243 25.7078 25.9044 25.8945 25.9844C26.268 26.1712 26.6415 26.4646 26.935 26.7848C26.8016 26.8915 26.6949 26.9982 26.5615 27.1049C26.5882 27.1316 26.5882 27.185 26.5882 27.2116C26.5882 27.345 26.4815 27.4784 26.3214 27.4784C26.268 27.4784 26.2147 27.4517 26.1613 27.4251C26.1346 27.5051 26.108 27.5051 26.0813 27.5318Z" fill="#F5F5FF" stroke="#2E2E2E" stroke-width="0.266786" stroke-miterlimit="10" stroke-linecap="round" stroke-linejoin="round"/>
<path d="M26.0814 27.5318C24.8008 28.5456 23.3335 29.3726 21.7861 29.9595C21.4393 30.0929 21.0925 30.1996 20.7457 30.3064L20.6123 29.9595C19.6785 27.7719 20.6923 25.2374 22.8266 24.4904C23.2268 24.357 23.6003 24.277 24.0005 24.277H24.0538C25.4144 24.277 26.7217 25.024 27.4687 26.2779C27.3086 26.438 27.1219 26.6247 26.9351 26.7848C26.8017 26.8915 26.695 26.9982 26.5616 27.1049C26.5883 27.1316 26.5883 27.185 26.5883 27.2116C26.5883 27.345 26.4816 27.4784 26.3215 27.4784C26.2681 27.4784 26.2148 27.4518 26.1614 27.4251C26.1348 27.5051 26.1081 27.5051 26.0814 27.5318Z" fill="#2E2E2E"/>
<path d="M26.5614 27.265C26.5614 27.3984 26.4547 27.5318 26.2946 27.5318C26.2413 27.5318 26.1879 27.5051 26.1345 27.4784C26.1079 27.4518 26.0812 27.4251 26.0545 27.3984C26.0278 27.3717 26.0278 27.3184 26.0278 27.265C26.0278 27.2117 26.0278 27.185 26.0545 27.1316C26.1079 27.0516 26.1879 26.9982 26.2946 26.9982C26.4013 26.9982 26.508 27.0516 26.5347 27.1583C26.5614 27.185 26.5614 27.2117 26.5614 27.265Z" fill="#F5F5FF"/>
<path d="M26.0813 27.3984C26.0813 27.4517 26.0813 27.4784 26.0813 27.5318C24.8007 28.5455 23.3334 29.3726 21.7861 29.9595C21.4392 30.0929 21.0924 30.1996 20.7456 30.3063C19.2783 30.7599 17.7043 31 16.0769 31C14.4495 31 12.8754 30.7599 11.4081 30.3063C11.0613 30.1996 10.7145 30.0929 10.3676 29.9595C8.79361 29.3726 7.32629 28.5189 6.01904 27.5051C6.04572 26.9448 6.15244 26.4379 6.33919 25.9577C6.36586 25.9044 6.36586 25.8777 6.39254 25.8243C6.73936 25.0773 7.37965 24.5171 8.28672 24.3303C8.3134 24.3303 8.34008 24.3303 8.36676 24.3303C8.58018 24.3037 8.79361 24.277 9.03372 24.277H23.3601C23.5735 24.277 23.787 24.3037 23.9737 24.3303C24.0271 24.3303 24.0537 24.357 24.1071 24.357C24.9608 24.5438 25.5211 25.0773 25.8145 25.7977C25.8412 25.8777 25.8679 25.931 25.8946 26.0111C26.0013 26.3579 26.0813 26.7314 26.0813 27.1316C26.0813 27.2116 26.0813 27.2917 26.0813 27.3984Z" fill="#2E2E2E"/>
<path d="M18.9046 24.0902L20.3452 24.3037C19.7049 25.9844 18.0508 27.265 16.2367 27.345C14.2892 27.4251 12.395 26.0911 11.728 24.3037L13.142 23.9568" fill="#F5F5FF"/>
<path d="M18.9046 24.0902L20.3452 24.3037C19.7049 25.9844 18.0508 27.265 16.2367 27.345C14.2892 27.4251 12.395 26.0911 11.728 24.3037L13.142 23.9568" stroke="#2E2E2E" stroke-width="0.266786" stroke-miterlimit="10" stroke-linecap="round" stroke-linejoin="round"/>
<path d="M23.7868 26.3045C23.7868 26.4913 23.6534 26.6247 23.4666 26.6247C23.2799 26.6247 23.1465 26.4913 23.1465 26.3045C23.1465 26.1178 23.2799 25.9844 23.4666 25.9844C23.6534 25.9844 23.7868 26.1178 23.7868 26.3045Z" fill="#F5F5FF"/>
<path d="M9.56706 26.7314C9.56706 27.0782 9.30027 27.345 8.95345 27.345C8.60663 27.345 8.33984 27.0782 8.33984 26.7314C8.33984 26.3846 8.60663 26.1178 8.95345 26.1178C9.27359 26.0911 9.56706 26.3846 9.56706 26.7314Z" fill="#F5F5FF"/>
<path d="M21.3057 29.4793C21.3057 29.7194 21.119 29.8795 20.9056 29.8795C20.6921 29.8795 20.5054 29.6927 20.5054 29.4793C20.5054 29.2659 20.6921 29.0791 20.9056 29.0791C21.119 29.0791 21.3057 29.2392 21.3057 29.4793Z" fill="#F5F5FF"/>
<path d="M14.2361 30.1196C14.5013 30.1196 14.7163 29.9046 14.7163 29.6394C14.7163 29.3741 14.5013 29.1591 14.2361 29.1591C13.9709 29.1591 13.7559 29.3741 13.7559 29.6394C13.7559 29.9046 13.9709 30.1196 14.2361 30.1196Z" fill="#F5F5FF"/>
</g>
<defs>
<clipPath id="clip0_2032_111488">
<rect width="32" height="32" fill="white"/>
</clipPath>
</defs>
</svg>
