<svg width="40" height="40" viewBox="0 0 40 40" fill="none" xmlns="http://www.w3.org/2000/svg">
<rect width="40" height="40" rx="20" fill="#171B24"/>
<path fill-rule="evenodd" clip-rule="evenodd" d="M13.5151 24.0006L14.6951 22.8186C15.0731 22.4406 15.2811 21.9386 15.2811 21.4046V16.7276C15.2811 15.3706 15.8711 14.0736 16.9011 13.1716C17.9391 12.2616 19.2611 11.8616 20.6381 12.0426C22.9651 12.3516 24.7201 14.4556 24.7201 16.9376V21.4046C24.7201 21.9386 24.9281 22.4406 25.3051 22.8176L26.4861 24.0006H13.5151ZM22.0005 26.341C22.0005 27.24 21.0845 28 20.0005 28C18.9165 28 18.0005 27.24 18.0005 26.341V26H22.0005V26.341ZM28.5213 23.2088L26.7203 21.4048V16.9378C26.7203 13.4568 24.2183 10.4998 20.9003 10.0608C18.9783 9.80481 17.0383 10.3918 15.5833 11.6678C14.1193 12.9498 13.2813 14.7938 13.2813 16.7278L13.2803 21.4048L11.4793 23.2088C11.0103 23.6788 10.8713 24.3778 11.1253 24.9908C11.3803 25.6048 11.9733 26.0008 12.6373 26.0008H16.0003V26.3418C16.0003 28.3598 17.7943 30.0008 20.0003 30.0008C22.2063 30.0008 24.0003 28.3598 24.0003 26.3418V26.0008H27.3633C28.0273 26.0008 28.6193 25.6048 28.8733 24.9918C29.1283 24.3778 28.9903 23.6778 28.5213 23.2088Z" fill="white"/>
<mask id="mask0_1014_130071" style="mask-type:luminance" maskUnits="userSpaceOnUse" x="11" y="10" width="18" height="21">
<path fill-rule="evenodd" clip-rule="evenodd" d="M13.5151 24.0006L14.6951 22.8186C15.0731 22.4406 15.2811 21.9386 15.2811 21.4046V16.7276C15.2811 15.3706 15.8711 14.0736 16.9011 13.1716C17.9391 12.2616 19.2611 11.8616 20.6381 12.0426C22.9651 12.3516 24.7201 14.4556 24.7201 16.9376V21.4046C24.7201 21.9386 24.9281 22.4406 25.3051 22.8176L26.4861 24.0006H13.5151ZM22.0005 26.341C22.0005 27.24 21.0845 28 20.0005 28C18.9165 28 18.0005 27.24 18.0005 26.341V26H22.0005V26.341ZM28.5213 23.2088L26.7203 21.4048V16.9378C26.7203 13.4568 24.2183 10.4998 20.9003 10.0608C18.9783 9.80481 17.0383 10.3918 15.5833 11.6678C14.1193 12.9498 13.2813 14.7938 13.2813 16.7278L13.2803 21.4048L11.4793 23.2088C11.0103 23.6788 10.8713 24.3778 11.1253 24.9908C11.3803 25.6048 11.9733 26.0008 12.6373 26.0008H16.0003V26.3418C16.0003 28.3598 17.7943 30.0008 20.0003 30.0008C22.2063 30.0008 24.0003 28.3598 24.0003 26.3418V26.0008H27.3633C28.0273 26.0008 28.6193 25.6048 28.8733 24.9918C29.1283 24.3778 28.9903 23.6778 28.5213 23.2088Z" fill="white"/>
</mask>
<g mask="url(#mask0_1014_130071)">
<rect x="8" y="8" width="24" height="24" fill="white"/>
</g>
</svg>
