<svg width="32" height="32" viewBox="0 0 32 32" fill="none" xmlns="http://www.w3.org/2000/svg">
<rect width="32" height="32" rx="16" fill="#F2F4F5" fill-opacity="0.1"/>
<path fill-rule="evenodd" clip-rule="evenodd" d="M20.5373 22.6665H11.4632C11.2082 22.6665 11.0007 22.4798 11.0007 22.2498V9.74984C11.0007 9.51984 11.2082 9.33317 11.4632 9.33317H15.1673V12.7915C15.1673 14.1015 16.1815 15.1665 17.429 15.1665H21.0007V22.2498C21.0007 22.4798 20.7923 22.6665 20.5373 22.6665V22.6665ZM20.7082 13.4998H17.429C17.1007 13.4998 16.834 13.1823 16.834 12.7915V9.33317H16.9273L20.7082 13.4998ZM22.4506 12.9398L17.914 7.93984C17.7565 7.76567 17.5323 7.6665 17.2965 7.6665H11.4632C10.289 7.6665 9.33398 8.6015 9.33398 9.74984V22.2498C9.33398 23.3982 10.289 24.3332 11.4632 24.3332H20.5373C21.7115 24.3332 22.6673 23.3982 22.6673 22.2498V13.4998C22.6673 13.2923 22.5898 13.0932 22.4506 12.9398V12.9398Z" fill="white"/>
<mask id="mask0_1150_258822" style="mask-type:luminance" maskUnits="userSpaceOnUse" x="9" y="7" width="14" height="18">
<path fill-rule="evenodd" clip-rule="evenodd" d="M20.5373 22.6665H11.4632C11.2082 22.6665 11.0007 22.4798 11.0007 22.2498V9.74984C11.0007 9.51984 11.2082 9.33317 11.4632 9.33317H15.1673V12.7915C15.1673 14.1015 16.1815 15.1665 17.429 15.1665H21.0007V22.2498C21.0007 22.4798 20.7923 22.6665 20.5373 22.6665V22.6665ZM20.7082 13.4998H17.429C17.1007 13.4998 16.834 13.1823 16.834 12.7915V9.33317H16.9273L20.7082 13.4998ZM22.4506 12.9398L17.914 7.93984C17.7565 7.76567 17.5323 7.6665 17.2965 7.6665H11.4632C10.289 7.6665 9.33398 8.6015 9.33398 9.74984V22.2498C9.33398 23.3982 10.289 24.3332 11.4632 24.3332H20.5373C21.7115 24.3332 22.6673 23.3982 22.6673 22.2498V13.4998C22.6673 13.2923 22.5898 13.0932 22.4506 12.9398V12.9398Z" fill="white"/>
</mask>
<g mask="url(#mask0_1150_258822)">
<rect x="6" y="6" width="20" height="20" fill="white"/>
</g>
</svg>
