<svg width="80" height="80" viewBox="0 0 80 80" fill="none" xmlns="http://www.w3.org/2000/svg">
<rect width="80" height="80" rx="40" fill="#D8E7FF"/>
<path fill-rule="evenodd" clip-rule="evenodd" d="M51.6773 29.9998L40.8357 37.4465C40.324 37.7382 39.6973 37.7382 39.1857 37.4465L28.344 29.9998H51.6773ZM51.6773 26.6665H28.344C25.5873 26.6665 23.344 28.9098 23.344 31.6665V48.3332C23.344 51.0898 25.5873 53.3332 28.344 53.3332H51.6773C54.434 53.3332 56.6773 51.0898 56.6773 48.3332V31.6665C56.6773 28.9098 54.434 26.6665 51.6773 26.6665Z" fill="#488CFF"/>
<mask id="mask0_276_204515" style="mask-type:luminance" maskUnits="userSpaceOnUse" x="23" y="26" width="34" height="28">
<path fill-rule="evenodd" clip-rule="evenodd" d="M51.6773 29.9998L40.8357 37.4465C40.324 37.7382 39.6973 37.7382 39.1857 37.4465L28.344 29.9998H51.6773ZM51.6773 26.6665H28.344C25.5873 26.6665 23.344 28.9098 23.344 31.6665V48.3332C23.344 51.0898 25.5873 53.3332 28.344 53.3332H51.6773C54.434 53.3332 56.6773 51.0898 56.6773 48.3332V31.6665C56.6773 28.9098 54.434 26.6665 51.6773 26.6665Z" fill="white"/>
</mask>
<g mask="url(#mask0_276_204515)">
<rect x="20" y="20" width="40" height="40" fill="#488CFF"/>
</g>
</svg>
