<svg width="40" height="40" viewBox="0 0 40 40" fill="none" xmlns="http://www.w3.org/2000/svg">
<rect width="40" height="40" rx="20" fill="#171B24"/>
<path d="M20 10C25.523 10 30 14.477 30 20C30 25.523 25.523 30 20 30C14.477 30 10 25.523 10 20C10 14.477 14.477 10 20 10ZM20 25C19.3744 25.0007 18.7543 24.8836 18.172 24.655L15.936 26.892C17.1666 27.6194 18.5704 28.0022 20 28C21.4296 28.0022 22.8333 27.6194 24.064 26.892L21.828 24.655C21.2457 24.8836 20.6256 25.0007 20 25ZM12 20C12 21.484 12.404 22.873 13.108 24.064L15.345 21.828C15.1164 21.2457 14.9993 20.6256 15 20C15 19.355 15.122 18.739 15.345 18.172L13.108 15.936C12.3806 17.1666 11.9978 18.5704 12 20ZM26.892 15.936L24.655 18.172C24.878 18.739 25 19.355 25 20C25 20.645 24.878 21.261 24.655 21.828L26.892 24.064C27.6194 22.8333 28.0022 21.4296 28 20C28.0022 18.5704 27.6194 17.1666 26.892 15.936ZM20 17C19.2044 17 18.4413 17.3161 17.8787 17.8787C17.3161 18.4413 17 19.2044 17 20C17 20.7956 17.3161 21.5587 17.8787 22.1213C18.4413 22.6839 19.2044 23 20 23C20.7956 23 21.5587 22.6839 22.1213 22.1213C22.6839 21.5587 23 20.7956 23 20C23 19.2044 22.6839 18.4413 22.1213 17.8787C21.5587 17.3161 20.7956 17 20 17ZM20 12C18.5704 11.9978 17.1666 12.3806 15.936 13.108L18.172 15.345C18.7543 15.1164 19.3744 14.9993 20 15C20.645 15 21.261 15.122 21.828 15.345L24.064 13.108C22.8333 12.3806 21.4296 11.9978 20 12Z" fill="white"/>
</svg>
