<svg width="14" height="14" viewBox="0 0 14 14" fill="none" xmlns="http://www.w3.org/2000/svg">
<path fill-rule="evenodd" clip-rule="evenodd" d="M8.64996 7.00029L13.6585 1.99179C14.1146 1.53563 14.1146 0.798292 13.6585 0.342125C13.2023 -0.114042 12.465 -0.114042 12.0088 0.342125L7.00029 5.35063L1.99179 0.342125C1.53563 -0.114042 0.798292 -0.114042 0.342125 0.342125C-0.114042 0.798292 -0.114042 1.53563 0.342125 1.99179L5.35063 7.00029L0.342125 12.0088C-0.114042 12.465 -0.114042 13.2023 0.342125 13.6585C0.569625 13.886 0.868292 14.0003 1.16696 14.0003C1.46563 14.0003 1.76429 13.886 1.99179 13.6585L7.00029 8.64996L12.0088 13.6585C12.2363 13.886 12.535 14.0003 12.8336 14.0003C13.1323 14.0003 13.431 13.886 13.6585 13.6585C14.1146 13.2023 14.1146 12.465 13.6585 12.0088L8.64996 7.00029Z" fill="black"/>
</svg>
