<svg width="20" height="20" viewBox="0 0 20 20" fill="none" xmlns="http://www.w3.org/2000/svg">
<path fill-rule="evenodd" clip-rule="evenodd" d="M7.99283 2.08325C5.61958 2.08325 3.71449 3.98864 3.71449 6.36159C3.71449 8.73521 5.61943 10.6408 7.99283 10.6408C10.3663 10.6408 12.272 8.7351 12.272 6.36159C12.272 3.98876 10.3662 2.08325 7.99283 2.08325ZM7.99283 3.33325C9.67587 3.33325 11.022 4.67916 11.022 6.36159C11.022 8.04474 9.67598 9.39075 7.99283 9.39075C6.30987 9.39075 4.96449 8.04495 4.96449 6.36159C4.96449 4.67895 6.30998 3.33325 7.99283 3.33325ZM16.7226 6.34709C16.7226 4.48498 15.2125 2.97459 13.3501 2.97459C13.0049 2.97459 12.7251 3.25441 12.7251 3.59959C12.7251 3.94476 13.0049 4.22459 13.3501 4.22459C14.5221 4.22459 15.4726 5.17528 15.4726 6.34709C15.4726 7.51941 14.5224 8.46959 13.3501 8.46959C13.0049 8.46959 12.7251 8.74941 12.7251 9.09459C12.7251 9.43976 13.0049 9.71959 13.3501 9.71959C15.2128 9.71959 16.7226 8.20976 16.7226 6.34709ZM16.0829 11.6616C15.6207 11.5591 15.1397 11.4898 14.6559 11.4569C14.3115 11.4334 14.0134 11.6936 13.9899 12.038C13.9665 12.3824 14.2267 12.6806 14.5711 12.704C14.9924 12.7326 15.4114 12.793 15.8259 12.8848C16.4731 13.0137 16.9017 13.2278 17.0176 13.471C17.105 13.6548 17.105 13.8702 17.0173 14.0546C16.9022 14.297 16.4758 14.5106 15.8351 14.6424C15.497 14.7119 15.2793 15.0424 15.3488 15.3805C15.4183 15.7186 15.7488 15.9363 16.0869 15.8668C17.0826 15.662 17.811 15.297 18.1463 14.5911C18.3953 14.0673 18.3953 13.4577 18.1463 12.9338C17.809 12.2262 17.073 11.8585 16.0829 11.6616ZM1.66699 15.0153C1.66699 12.8282 3.96499 12.047 7.99283 12.047L8.25931 12.0481C12.1297 12.0818 14.3195 12.8635 14.3195 14.9987C14.3195 17.0886 12.2207 17.8948 8.51961 17.9623L7.99283 17.967C3.95588 17.967 1.66699 17.1996 1.66699 15.0153ZM13.0695 14.9987C13.0695 13.8756 11.344 13.297 7.99283 13.297C4.64503 13.297 2.91699 13.8845 2.91699 15.0153C2.91699 16.139 4.64089 16.717 7.99283 16.717C11.3409 16.717 13.0695 16.1295 13.0695 14.9987Z" fill="#71787B"/>
<path d="M14.6559 11.4569L14.6729 11.2074H14.6729L14.6559 11.4569ZM16.0829 11.6616L16.0288 11.9057L16.0342 11.9068L16.0829 11.6616ZM13.9899 12.038L13.7405 12.021V12.021L13.9899 12.038ZM14.5711 12.704L14.5541 12.9534H14.5541L14.5711 12.704ZM15.8259 12.8848L15.7718 13.129L15.7771 13.13L15.8259 12.8848ZM17.0176 13.471L17.2434 13.3637L17.2433 13.3634L17.0176 13.471ZM17.0173 14.0546L16.7915 13.9473L16.7915 13.9473L17.0173 14.0546ZM15.8351 14.6424L15.7847 14.3975L15.8351 14.6424ZM15.3488 15.3805L15.5937 15.3301L15.3488 15.3805ZM16.0869 15.8668L16.0365 15.6219L16.0869 15.8668ZM18.1463 14.5911L17.9206 14.4838L17.9205 14.4838L18.1463 14.5911ZM18.1463 12.9338L18.3721 12.8265L18.372 12.8262L18.1463 12.9338ZM7.99283 12.047L7.9939 11.797H7.99283V12.047ZM8.25931 12.0481L8.26149 11.7982L8.26039 11.7982L8.25931 12.0481ZM8.51961 17.9623L8.52184 18.2123L8.52417 18.2123L8.51961 17.9623ZM7.99283 17.967V18.217L7.99505 18.217L7.99283 17.967ZM3.96449 6.36159C3.96449 4.1267 5.75766 2.33325 7.99283 2.33325V1.83325C5.4815 1.83325 3.46449 3.85058 3.46449 6.36159H3.96449ZM7.99283 10.3908C5.75756 10.3908 3.96449 8.5972 3.96449 6.36159H3.46449C3.46449 8.87323 5.4813 10.8908 7.99283 10.8908V10.3908ZM12.022 6.36159C12.022 8.59703 10.2283 10.3908 7.99283 10.3908V10.8908C10.5044 10.8908 12.522 8.87317 12.522 6.36159H12.022ZM7.99283 2.33325C10.2282 2.33325 12.022 4.12687 12.022 6.36159H12.522C12.522 3.85064 10.5042 1.83325 7.99283 1.83325V2.33325ZM11.272 6.36159C11.272 4.54103 9.81389 3.08325 7.99283 3.08325V3.58325C9.53786 3.58325 10.772 4.81729 10.772 6.36159H11.272ZM7.99283 9.64075C9.81405 9.64075 11.272 8.18281 11.272 6.36159H10.772C10.772 7.90667 9.53791 9.14075 7.99283 9.14075V9.64075ZM4.71449 6.36159C4.71449 8.18295 6.17174 9.64075 7.99283 9.64075V9.14075C6.44801 9.14075 5.21449 7.90694 5.21449 6.36159H4.71449ZM7.99283 3.08325C6.1719 3.08325 4.71449 4.54089 4.71449 6.36159H5.21449C5.21449 4.81701 6.44806 3.58325 7.99283 3.58325V3.08325ZM13.3501 3.22459C15.0744 3.22459 16.4726 4.62304 16.4726 6.34709H16.9726C16.9726 4.34693 15.3506 2.72459 13.3501 2.72459V3.22459ZM12.9751 3.59959C12.9751 3.39248 13.143 3.22459 13.3501 3.22459V2.72459C12.8668 2.72459 12.4751 3.11634 12.4751 3.59959H12.9751ZM13.3501 3.97459C13.143 3.97459 12.9751 3.80669 12.9751 3.59959H12.4751C12.4751 4.08283 12.8668 4.47459 13.3501 4.47459V3.97459ZM15.7226 6.34709C15.7226 5.03722 14.6602 3.97459 13.3501 3.97459V4.47459C14.384 4.47459 15.2226 5.31334 15.2226 6.34709H15.7226ZM13.3501 8.71959C14.6605 8.71959 15.7226 7.65748 15.7226 6.34709H15.2226C15.2226 7.38134 14.3843 8.21959 13.3501 8.21959V8.71959ZM12.9751 9.09459C12.9751 8.88748 13.143 8.71959 13.3501 8.71959V8.21959C12.8668 8.21959 12.4751 8.61134 12.4751 9.09459H12.9751ZM13.3501 9.46959C13.143 9.46959 12.9751 9.30169 12.9751 9.09459H12.4751C12.4751 9.57784 12.8668 9.96959 13.3501 9.96959V9.46959ZM16.4726 6.34709C16.4726 8.07169 15.0747 9.46959 13.3501 9.46959V9.96959C15.3508 9.96959 16.9726 8.34784 16.9726 6.34709H16.4726ZM14.6389 11.7063C15.1104 11.7383 15.5789 11.8059 16.0288 11.9057L16.137 11.4175C15.6625 11.3123 15.169 11.2412 14.6729 11.2074L14.6389 11.7063ZM14.2394 12.055C14.2534 11.8483 14.4323 11.6922 14.6389 11.7063L14.6729 11.2074C14.1907 11.1746 13.7733 11.5389 13.7405 12.021L14.2394 12.055ZM14.588 12.4546C14.3814 12.4405 14.2253 12.2616 14.2394 12.055L13.7405 12.021C13.7077 12.5032 14.072 12.9206 14.5541 12.9534L14.588 12.4546ZM15.8799 12.6407C15.4533 12.5463 15.0219 12.4841 14.588 12.4546L14.5541 12.9534C14.9629 12.9812 15.3695 13.0398 15.7719 13.1289L15.8799 12.6407ZM17.2433 13.3634C17.1493 13.1661 16.9522 13.0198 16.7317 12.9109C16.5035 12.7982 16.212 12.7068 15.8747 12.6396L15.7771 13.13C16.087 13.1917 16.3334 13.2718 16.5103 13.3592C16.6949 13.4504 16.7701 13.5327 16.792 13.5786L17.2433 13.3634ZM17.2431 14.1619C17.363 13.9098 17.3631 13.6155 17.2434 13.3637L16.7918 13.5783C16.8469 13.6941 16.847 13.8307 16.7915 13.9473L17.2431 14.1619ZM15.8854 14.8873C16.2192 14.8186 16.5083 14.7266 16.7348 14.6137C16.9535 14.5048 17.1496 14.3587 17.2432 14.1619L16.7915 13.9473C16.7699 13.9929 16.6953 14.0748 16.5118 14.1662C16.3361 14.2537 16.0916 14.3344 15.7847 14.3975L15.8854 14.8873ZM15.5937 15.3301C15.552 15.1273 15.6826 14.929 15.8854 14.8873L15.7847 14.3975C15.3114 14.4949 15.0066 14.9575 15.1039 15.4309L15.5937 15.3301ZM16.0365 15.6219C15.8337 15.6636 15.6354 15.533 15.5937 15.3301L15.1039 15.4309C15.2013 15.9042 15.6639 16.209 16.1373 16.1116L16.0365 15.6219ZM17.9205 14.4838C17.6372 15.0802 17.0103 15.4216 16.0365 15.6219L16.1373 16.1116C17.1549 15.9023 17.9848 15.5138 18.3722 14.6984L17.9205 14.4838ZM17.9205 13.0411C18.1373 13.4971 18.1373 14.0279 17.9206 14.4838L18.3721 14.6984C18.6534 14.1067 18.6534 13.4183 18.3721 12.8265L17.9205 13.0411ZM16.0342 11.9068C17.001 12.0991 17.6356 12.4433 17.9206 13.0414L18.372 12.8262C17.9825 12.0091 17.145 11.618 16.1317 11.4164L16.0342 11.9068ZM7.99283 11.797C5.97177 11.797 4.34708 11.9916 3.21979 12.4817C2.65229 12.7285 2.19859 13.0553 1.88716 13.4813C1.57383 13.9099 1.41699 14.4221 1.41699 15.0153H1.91699C1.91699 14.515 2.04741 14.1093 2.29081 13.7764C2.53613 13.4408 2.90867 13.1622 3.41915 12.9403C4.44782 12.493 5.98604 12.297 7.99283 12.297V11.797ZM8.26039 11.7982L7.9939 11.797L7.99175 12.297L8.25824 12.2981L8.26039 11.7982ZM14.5695 14.9987C14.5695 14.4197 14.4201 13.9184 14.1207 13.4968C13.8228 13.0776 13.3883 12.7539 12.8438 12.5076C11.7629 12.0186 10.204 11.8151 8.26149 11.7982L8.25714 12.2981C10.185 12.3149 11.6562 12.5191 12.6377 12.9631C13.1246 13.1834 13.4794 13.4575 13.7131 13.7864C13.9451 14.113 14.0695 14.5101 14.0695 14.9987H14.5695ZM8.52417 18.2123C10.3832 18.1784 11.8777 17.9596 12.9152 17.4645C13.4378 17.2151 13.8544 16.8908 14.1398 16.4755C14.4264 16.0583 14.5695 15.5652 14.5695 14.9987H14.0695C14.0695 15.4771 13.9502 15.8685 13.7277 16.1923C13.5038 16.5181 13.1645 16.7915 12.6998 17.0133C11.7626 17.4606 10.3572 17.6788 8.51505 17.7124L8.52417 18.2123ZM7.99505 18.217L8.52184 18.2123L8.51739 17.7123L7.9906 17.717L7.99505 18.217ZM1.41699 15.0153C1.41699 15.6078 1.57319 16.1186 1.88602 16.5457C2.19693 16.9703 2.65001 17.295 3.21697 17.5398C4.34304 18.0259 5.96766 18.217 7.99283 18.217V17.717C5.98105 17.717 4.44275 17.5244 3.41514 17.0808C2.90526 16.8606 2.53381 16.584 2.2894 16.2503C2.04691 15.9192 1.91699 15.5151 1.91699 15.0153H1.41699ZM7.99283 13.547C9.66035 13.547 10.897 13.6917 11.7084 13.9637C12.5287 14.2387 12.8195 14.6047 12.8195 14.9987H13.3195C13.3195 14.2696 12.7476 13.7847 11.8673 13.4896C10.9782 13.1916 9.6765 13.047 7.99283 13.047V13.547ZM3.16699 15.0153C3.16699 14.6163 3.4601 14.2466 4.27973 13.9689C5.09104 13.6939 6.32725 13.547 7.99283 13.547V13.047C6.31061 13.047 5.0089 13.1938 4.11925 13.4953C3.23791 13.794 2.66699 14.2835 2.66699 15.0153H3.16699ZM7.99283 16.467C6.3249 16.467 5.08845 16.3224 4.2774 16.0505C3.45757 15.7757 3.16699 15.4098 3.16699 15.0153H2.66699C2.66699 15.7446 3.23836 16.2295 4.11847 16.5246C5.00735 16.8226 6.30882 16.967 7.99283 16.967V16.467ZM12.8195 14.9987C12.8195 15.3976 12.5263 15.7673 11.7064 16.0451C10.8949 16.3201 9.65852 16.467 7.99283 16.467V16.967C9.67516 16.967 10.9771 16.8202 11.8669 16.5187C12.7484 16.22 13.3195 15.7305 13.3195 14.9987H12.8195Z" fill="#71787B"/>
</svg>
