<svg width="14" height="18" viewBox="0 0 14 18" fill="none" xmlns="http://www.w3.org/2000/svg">
<path fill-rule="evenodd" clip-rule="evenodd" d="M7.00356 0.666748C4.55854 0.666748 2.57646 2.65728 2.57646 5.11273C2.57646 7.56817 4.55854 9.5587 7.00356 9.5587C9.44858 9.5587 11.4307 7.56817 11.4307 5.11273C11.4307 2.65728 9.44858 0.666748 7.00356 0.666748ZM7.00346 1.8728C8.78504 1.8728 10.2293 3.32322 10.2293 5.11239C10.2293 6.90156 8.78504 8.35198 7.00346 8.35198C5.22188 8.35198 3.77763 6.90156 3.77763 5.11239C3.77763 3.32322 5.22188 1.8728 7.00346 1.8728ZM5.19169 11.3502C4.54359 11.3952 3.88849 11.4877 3.24231 11.6262C1.99513 11.8831 0.997357 12.3964 0.572679 13.2493C0.412502 13.5829 0.331971 13.9401 0.33333 14.3017C0.332849 14.6607 0.412729 15.0183 0.567161 15.3455C0.974932 16.1887 1.85648 16.6658 3.04685 16.9303L3.26008 16.9748C3.88872 17.1167 4.54401 17.2122 5.2037 17.257C5.25988 17.2735 5.39379 17.2888 5.53995 17.2962L5.66016 17.3007C5.72197 17.3022 5.79213 17.3025 5.89665 17.3025C6.84485 17.3547 7.82783 17.3395 8.80624 17.2562C9.32764 17.2205 9.85256 17.1524 10.3731 17.0524L10.7625 16.9716C12.0479 16.718 13.0105 16.2358 13.4321 15.3465C13.7448 14.6862 13.7448 13.92 13.4323 13.2601C13.0117 12.373 12.0614 11.8948 10.7528 11.6252C10.2394 11.5156 9.71765 11.4345 9.19221 11.3827L8.80806 11.3502C7.60492 11.2441 6.39483 11.2441 5.19169 11.3502ZM8.70284 12.5515L8.7134 12.5523C9.31644 12.5948 9.91579 12.6794 10.5071 12.8057C11.4791 13.0059 12.1388 13.3379 12.3475 13.778C12.5046 14.1099 12.5046 14.4955 12.3473 14.8277C12.1523 15.2389 11.5599 15.5566 10.7036 15.7508L10.5161 15.7905C9.91319 15.925 9.31582 16.0117 8.7145 16.0529C7.78148 16.1323 6.85399 16.1466 5.92884 16.0966L5.60084 16.091C5.50978 16.0863 5.43305 16.0775 5.36193 16.0632C4.7988 16.0207 4.29209 15.9535 3.80009 15.856L3.50633 15.7938C2.53129 15.6027 1.86583 15.2693 1.65007 14.8232C1.57457 14.6631 1.53424 14.4826 1.53448 14.2998C1.53381 14.118 1.5736 13.9415 1.65085 13.7806C1.86064 13.3593 2.56586 12.9966 3.48825 12.8065C4.08381 12.6789 4.68288 12.5943 5.28565 12.5524C6.42989 12.4515 7.56964 12.4515 8.70284 12.5515Z" fill="#71787B"/>
<path d="M3.24231 11.6262L3.29275 11.871L3.2947 11.8706L3.24231 11.6262ZM5.19169 11.3502L5.209 11.5996L5.21366 11.5992L5.19169 11.3502ZM0.572679 13.2493L0.348859 13.1379L0.347312 13.1411L0.572679 13.2493ZM0.33333 14.3017L0.583333 14.3021L0.583328 14.3008L0.33333 14.3017ZM0.567161 15.3455L0.341072 15.4522L0.342099 15.4544L0.567161 15.3455ZM3.04685 16.9303L2.99262 17.1744L2.99578 17.1751L3.04685 16.9303ZM3.26008 16.9748L3.31511 16.7309L3.31116 16.7301L3.26008 16.9748ZM5.2037 17.257L5.27399 17.0171L5.24784 17.0094L5.22065 17.0076L5.2037 17.257ZM5.53995 17.2962L5.5272 17.5459L5.53058 17.5461L5.53995 17.2962ZM5.66016 17.3007L5.65079 17.5506L5.65437 17.5507L5.66016 17.3007ZM5.89665 17.3025L5.9104 17.0525H5.89665V17.3025ZM8.80624 17.2562L8.78918 17.0068L8.78504 17.0071L8.80624 17.2562ZM10.3731 17.0524L10.4202 17.298L10.4239 17.2972L10.3731 17.0524ZM10.7625 16.9716L10.7141 16.7263L10.7117 16.7268L10.7625 16.9716ZM13.4321 15.3465L13.658 15.4536L13.6581 15.4535L13.4321 15.3465ZM13.4323 13.2601L13.6582 13.1531L13.6582 13.153L13.4323 13.2601ZM10.7528 11.6252L10.7006 11.8697L10.7023 11.8701L10.7528 11.6252ZM9.19221 11.3827L9.21673 11.1339L9.21328 11.1336L9.19221 11.3827ZM8.80806 11.3502L8.7861 11.5992L8.78699 11.5993L8.80806 11.3502ZM8.7134 12.5523L8.69363 12.8016L8.69585 12.8017L8.7134 12.5523ZM8.70284 12.5515L8.68087 12.8006L8.68306 12.8007L8.70284 12.5515ZM10.5071 12.8057L10.4549 13.0502L10.4566 13.0505L10.5071 12.8057ZM12.3475 13.778L12.5734 13.671L12.5733 13.6709L12.3475 13.778ZM12.3473 14.8277L12.5732 14.9348L12.5733 14.9346L12.3473 14.8277ZM10.7036 15.7508L10.7554 15.9954L10.7589 15.9946L10.7036 15.7508ZM10.5161 15.7905L10.4643 15.5459L10.4617 15.5465L10.5161 15.7905ZM8.7145 16.0529L8.6974 15.8035L8.69331 15.8038L8.7145 16.0529ZM5.92884 16.0966L5.94235 15.8468L5.93312 15.8466L5.92884 16.0966ZM5.60084 16.091L5.58808 16.3408L5.59656 16.3409L5.60084 16.091ZM5.36193 16.0632L5.41116 15.8181L5.39608 15.8151L5.38075 15.814L5.36193 16.0632ZM3.80009 15.856L3.74831 16.1006L3.75148 16.1012L3.80009 15.856ZM3.50633 15.7938L3.55812 15.5492L3.55441 15.5484L3.50633 15.7938ZM1.65007 14.8232L1.42396 14.9298L1.42501 14.932L1.65007 14.8232ZM1.53448 14.2998L1.78448 14.3001L1.78448 14.2989L1.53448 14.2998ZM1.65085 13.7806L1.42705 13.6691L1.42547 13.6724L1.65085 13.7806ZM3.48825 12.8065L3.53869 13.0514L3.54063 13.051L3.48825 12.8065ZM5.28565 12.5524L5.303 12.8018L5.30759 12.8014L5.28565 12.5524ZM2.82646 5.11273C2.82646 2.79435 4.69761 0.916748 7.00356 0.916748V0.416748C4.41946 0.416748 2.32646 2.52021 2.32646 5.11273H2.82646ZM7.00356 9.3087C4.69761 9.3087 2.82646 7.4311 2.82646 5.11273H2.32646C2.32646 7.70524 4.41946 9.8087 7.00356 9.8087V9.3087ZM11.1807 5.11273C11.1807 7.4311 9.30951 9.3087 7.00356 9.3087V9.8087C9.58765 9.8087 11.6807 7.70524 11.6807 5.11273H11.1807ZM7.00356 0.916748C9.30951 0.916748 11.1807 2.79435 11.1807 5.11273H11.6807C11.6807 2.52021 9.58765 0.416748 7.00356 0.416748V0.916748ZM10.4793 5.11239C10.4793 3.18615 8.92411 1.6228 7.00346 1.6228V2.1228C8.64597 2.1228 9.97929 3.46028 9.97929 5.11239H10.4793ZM7.00346 8.60198C8.92411 8.60198 10.4793 7.03863 10.4793 5.11239H9.97929C9.97929 6.7645 8.64597 8.10198 7.00346 8.10198V8.60198ZM3.52763 5.11239C3.52763 7.03863 5.08281 8.60198 7.00346 8.60198V8.10198C5.36096 8.10198 4.02763 6.7645 4.02763 5.11239H3.52763ZM7.00346 1.6228C5.08281 1.6228 3.52763 3.18615 3.52763 5.11239H4.02763C4.02763 3.46028 5.36096 2.1228 7.00346 2.1228V1.6228ZM3.2947 11.8706C3.92943 11.7346 4.57281 11.6438 5.209 11.5996L5.17437 11.1008C4.51437 11.1466 3.84755 11.2408 3.18992 11.3817L3.2947 11.8706ZM0.796475 13.3608C1.16855 12.6134 2.0681 12.1233 3.29275 11.871L3.19187 11.3813C1.92216 11.6429 0.826159 12.1793 0.348882 13.1379L0.796475 13.3608ZM0.583328 14.3008C0.582113 13.9774 0.654041 13.6575 0.798045 13.3576L0.347312 13.1411C0.170964 13.5084 0.0818293 13.9029 0.0833317 14.3027L0.583328 14.3008ZM0.79324 15.2388C0.654553 14.945 0.582899 14.6239 0.58333 14.3021L0.0833301 14.3014C0.0827999 14.6975 0.170905 15.0917 0.341082 15.4522L0.79324 15.2388ZM3.10108 16.6863C1.93702 16.4276 1.1499 15.9763 0.792223 15.2367L0.342099 15.4544C0.799965 16.4011 1.77594 16.904 2.99262 17.1744L3.10108 16.6863ZM3.31116 16.7301L3.09792 16.6856L2.99578 17.1751L3.20901 17.2196L3.31116 16.7301ZM5.22065 17.0076C4.57358 16.9636 3.93102 16.8699 3.31511 16.731L3.20506 17.2187C3.84641 17.3634 4.51445 17.4607 5.18675 17.5064L5.22065 17.0076ZM5.55269 17.0466C5.48404 17.0431 5.41946 17.0378 5.36691 17.0317C5.34062 17.0286 5.31859 17.0255 5.30131 17.0226C5.29273 17.0211 5.28598 17.0198 5.28094 17.0187C5.27568 17.0176 5.27361 17.017 5.27399 17.0171L5.1334 17.4969C5.22145 17.5227 5.38305 17.5386 5.5272 17.5459L5.55269 17.0466ZM5.66953 17.0509L5.54931 17.0464L5.53058 17.5461L5.65079 17.5506L5.66953 17.0509ZM5.89665 17.0525C5.79224 17.0525 5.72461 17.0522 5.66595 17.0508L5.65437 17.5507C5.71933 17.5522 5.79202 17.5525 5.89665 17.5525V17.0525ZM8.78504 17.0071C7.81797 17.0894 6.84667 17.1044 5.91038 17.0529L5.88292 17.5522C6.84303 17.605 7.83769 17.5896 8.82745 17.5053L8.78504 17.0071ZM10.326 16.8069C9.81526 16.9049 9.30038 16.9718 8.78918 17.0068L8.82331 17.5056C9.3549 17.4693 9.88985 17.3998 10.4202 17.298L10.326 16.8069ZM10.7117 16.7268L10.3223 16.8077L10.4239 17.2972L10.8134 17.2164L10.7117 16.7268ZM13.2062 15.2394C12.8372 16.0176 11.9781 16.477 10.7142 16.7263L10.8109 17.2169C12.1178 16.959 13.1837 16.4539 13.658 15.4536L13.2062 15.2394ZM13.2063 13.3671C13.4867 13.9593 13.4868 14.6469 13.2062 15.2395L13.6581 15.4535C14.0028 14.7255 14.0028 13.8808 13.6582 13.1531L13.2063 13.3671ZM10.7023 11.8701C11.9914 12.1356 12.8383 12.591 13.2064 13.3672L13.6582 13.153C13.185 12.155 12.1314 11.6539 10.8032 11.3803L10.7023 11.8701ZM9.16768 11.6315C9.68387 11.6824 10.1963 11.762 10.7006 11.8697L10.805 11.3807C10.2824 11.2691 9.75143 11.1866 9.21673 11.1339L9.16768 11.6315ZM8.78699 11.5993L9.17113 11.6318L9.21328 11.1336L8.82914 11.1011L8.78699 11.5993ZM5.21366 11.5992C6.40218 11.4944 7.59757 11.4944 8.7861 11.5992L8.83003 11.1012C7.61227 10.9937 6.38748 10.9937 5.16972 11.1012L5.21366 11.5992ZM8.73318 12.3031L8.72261 12.3023L8.68306 12.8007L8.69363 12.8016L8.73318 12.3031ZM10.5593 12.5612C9.95656 12.4325 9.34564 12.3462 8.73096 12.303L8.69585 12.8017C9.28724 12.8434 9.87501 12.9264 10.4549 13.0502L10.5593 12.5612ZM12.5733 13.6709C12.4363 13.3819 12.166 13.156 11.8292 12.9802C11.4893 12.8029 11.0572 12.6637 10.5575 12.5608L10.4566 13.0505C10.929 13.1478 11.3128 13.2748 11.5979 13.4235C11.8861 13.5739 12.0499 13.734 12.1216 13.8851L12.5733 13.6709ZM12.5733 14.9346C12.7626 14.5348 12.7626 14.0706 12.5734 13.671L12.1215 13.885C12.2466 14.1491 12.2466 14.4562 12.1214 14.7207L12.5733 14.9346ZM10.7589 15.9946C11.2016 15.8942 11.5881 15.7594 11.8947 15.5892C12.199 15.4204 12.4449 15.2054 12.5732 14.9348L12.1214 14.7205C12.0547 14.8612 11.9069 15.0106 11.6521 15.152C11.3997 15.2921 11.0618 15.4132 10.6483 15.507L10.7589 15.9946ZM10.5679 16.0351L10.7554 15.9953L10.6518 15.5062L10.4643 15.5459L10.5679 16.0351ZM8.73159 16.3023C9.34566 16.2603 9.95552 16.1717 10.5706 16.0345L10.4617 15.5465C9.87086 15.6783 9.28598 15.7632 8.6974 15.8035L8.73159 16.3023ZM5.91534 16.3462C6.85212 16.3969 7.7912 16.3824 8.73568 16.302L8.69331 15.8038C7.77176 15.8822 6.85586 15.8963 5.94234 15.8469L5.91534 16.3462ZM5.59656 16.3409L5.92456 16.3465L5.93312 15.8466L5.60512 15.841L5.59656 16.3409ZM5.3127 16.3083C5.39876 16.3256 5.48816 16.3355 5.58809 16.3406L5.61359 15.8413C5.53141 15.8371 5.46733 15.8294 5.41116 15.8181L5.3127 16.3083ZM3.75148 16.1012C4.25445 16.2009 4.77121 16.2694 5.34311 16.3125L5.38075 15.814C4.8264 15.7721 4.32972 15.7061 3.8487 15.6107L3.75148 16.1012ZM3.45455 16.0383L3.74831 16.1005L3.85187 15.6114L3.55811 15.5492L3.45455 16.0383ZM1.42501 14.932C1.56563 15.2227 1.83838 15.4502 2.17863 15.6262C2.52168 15.8035 2.95642 15.9407 3.45824 16.0391L3.55441 15.5484C3.0812 15.4557 2.69569 15.3306 2.4083 15.182C2.11813 15.032 1.95027 14.8697 1.87513 14.7143L1.42501 14.932ZM1.28448 14.2995C1.28419 14.5186 1.33242 14.7358 1.42397 14.9298L1.87616 14.7165C1.81671 14.5905 1.78429 14.4465 1.78448 14.3001L1.28448 14.2995ZM1.42547 13.6724C1.33172 13.8677 1.28367 14.0816 1.28448 14.3007L1.78448 14.2989C1.78394 14.1545 1.81548 14.0153 1.87624 13.8887L1.42547 13.6724ZM3.43781 12.5617C2.95981 12.6602 2.52948 12.805 2.18599 12.9856C1.84873 13.1629 1.56604 13.3901 1.42707 13.6691L1.87464 13.892C1.94545 13.7498 2.12027 13.585 2.41867 13.4281C2.71083 13.2745 3.0943 13.1429 3.53869 13.0514L3.43781 12.5617ZM5.2683 12.303C4.6537 12.3457 4.04293 12.432 3.43587 12.5621L3.54063 13.051C4.1247 12.9258 4.71206 12.8429 5.303 12.8018L5.2683 12.303ZM8.72481 12.3025C7.57692 12.2012 6.42248 12.2012 5.2637 12.3033L5.30759 12.8014C6.43731 12.7019 7.56236 12.7019 8.68087 12.8005L8.72481 12.3025Z" fill="#71787B"/>
</svg>
