<svg width="40" height="40" viewBox="0 0 40 40" fill="none" xmlns="http://www.w3.org/2000/svg">
<rect width="40" height="40" rx="20" fill="#171B24"/>
<path fill-rule="evenodd" clip-rule="evenodd" d="M19.2115 12.3343C19.0602 12.5445 19 12.8267 19 13V14H17V13C17 12.5066 17.1398 11.7889 17.5885 11.1657C18.0739 10.4915 18.8741 10 20 10C21.1259 10 21.9261 10.4915 22.4115 11.1657C22.8602 11.7889 23 12.5066 23 13V14H21V13C21 12.8267 20.9398 12.5445 20.7885 12.3343C20.6739 12.1751 20.4741 12 20 12C19.5259 12 19.3261 12.1751 19.2115 12.3343Z" fill="white"/>
<path fill-rule="evenodd" clip-rule="evenodd" d="M16 24C16 23.4477 16.4477 23 17 23H19C19.5523 23 20 23.4477 20 24C20 24.5523 19.5523 25 19 25H17C16.4477 25 16 24.5523 16 24Z" fill="white"/>
<path fill-rule="evenodd" clip-rule="evenodd" d="M16 21C16 20.4477 16.4477 20 17 20H23C23.5523 20 24 20.4477 24 21C24 21.5523 23.5523 22 23 22H17C16.4477 22 16 21.5523 16 21Z" fill="white"/>
<path fill-rule="evenodd" clip-rule="evenodd" d="M16 18C16 17.4477 16.4477 17 17 17H23C23.5523 17 24 17.4477 24 18C24 18.5523 23.5523 19 23 19H17C16.4477 19 16 18.5523 16 18Z" fill="white"/>
<path fill-rule="evenodd" clip-rule="evenodd" d="M12 16C12 14.3431 13.3431 13 15 13H25C26.6569 13 28 14.3431 28 16V27C28 28.6569 26.6569 30 25 30H15C13.3431 30 12 28.6569 12 27V16ZM15 15C14.4477 15 14 15.4477 14 16V27C14 27.5523 14.4477 28 15 28H25C25.5523 28 26 27.5523 26 27V16C26 15.4477 25.5523 15 25 15H15Z" fill="white"/>
</svg>
