<svg width="20" height="20" viewBox="0 0 20 20" fill="none" xmlns="http://www.w3.org/2000/svg">
<mask id="path-1-inside-1_2001_105396" fill="white">
<path fill-rule="evenodd" clip-rule="evenodd" d="M9.34293 3.612C9.21683 3.78714 9.16665 4.02232 9.16665 4.16675V5.00008H7.49998V4.16675C7.49998 3.75562 7.61646 3.15747 7.99037 2.63816C8.39487 2.07636 9.06171 1.66675 9.99998 1.66675C10.9382 1.66675 11.6051 2.07636 12.0096 2.63816C12.3835 3.15747 12.5 3.75562 12.5 4.16675V5.00008H10.8333V4.16675C10.8333 4.02232 10.7831 3.78714 10.657 3.612C10.5615 3.47936 10.395 3.33341 9.99998 3.33341C9.60491 3.33341 9.43843 3.47936 9.34293 3.612Z"/>
<path fill-rule="evenodd" clip-rule="evenodd" d="M6.66665 13.3334C6.66665 12.8732 7.03974 12.5001 7.49998 12.5001H9.16665C9.62688 12.5001 9.99998 12.8732 9.99998 13.3334C9.99998 13.7937 9.62688 14.1667 9.16665 14.1667H7.49998C7.03974 14.1667 6.66665 13.7937 6.66665 13.3334Z"/>
<path fill-rule="evenodd" clip-rule="evenodd" d="M6.66665 10.8334C6.66665 10.3732 7.03974 10.0001 7.49998 10.0001H12.5C12.9602 10.0001 13.3333 10.3732 13.3333 10.8334C13.3333 11.2937 12.9602 11.6667 12.5 11.6667H7.49998C7.03974 11.6667 6.66665 11.2937 6.66665 10.8334Z"/>
<path fill-rule="evenodd" clip-rule="evenodd" d="M6.66665 8.33342C6.66665 7.87318 7.03974 7.50008 7.49998 7.50008H12.5C12.9602 7.50008 13.3333 7.87318 13.3333 8.33342C13.3333 8.79365 12.9602 9.16675 12.5 9.16675H7.49998C7.03974 9.16675 6.66665 8.79365 6.66665 8.33342Z"/>
<path fill-rule="evenodd" clip-rule="evenodd" d="M3.33331 6.66675C3.33331 5.28604 4.4526 4.16675 5.83331 4.16675H14.1666C15.5474 4.16675 16.6666 5.28604 16.6666 6.66675V15.8334C16.6666 17.2141 15.5474 18.3334 14.1666 18.3334H5.83331C4.4526 18.3334 3.33331 17.2141 3.33331 15.8334V6.66675ZM5.83331 5.83342C5.37308 5.83342 4.99998 6.20651 4.99998 6.66675V15.8334C4.99998 16.2937 5.37308 16.6667 5.83331 16.6667H14.1666C14.6269 16.6667 15 16.2937 15 15.8334V6.66675C15 6.20651 14.6269 5.83342 14.1666 5.83342H5.83331Z"/>
</mask>
<path fill-rule="evenodd" clip-rule="evenodd" d="M9.34293 3.612C9.21683 3.78714 9.16665 4.02232 9.16665 4.16675V5.00008H7.49998V4.16675C7.49998 3.75562 7.61646 3.15747 7.99037 2.63816C8.39487 2.07636 9.06171 1.66675 9.99998 1.66675C10.9382 1.66675 11.6051 2.07636 12.0096 2.63816C12.3835 3.15747 12.5 3.75562 12.5 4.16675V5.00008H10.8333V4.16675C10.8333 4.02232 10.7831 3.78714 10.657 3.612C10.5615 3.47936 10.395 3.33341 9.99998 3.33341C9.60491 3.33341 9.43843 3.47936 9.34293 3.612Z" fill="#0B1015"/>
<path fill-rule="evenodd" clip-rule="evenodd" d="M6.66665 13.3334C6.66665 12.8732 7.03974 12.5001 7.49998 12.5001H9.16665C9.62688 12.5001 9.99998 12.8732 9.99998 13.3334C9.99998 13.7937 9.62688 14.1667 9.16665 14.1667H7.49998C7.03974 14.1667 6.66665 13.7937 6.66665 13.3334Z" fill="#0B1015"/>
<path fill-rule="evenodd" clip-rule="evenodd" d="M6.66665 10.8334C6.66665 10.3732 7.03974 10.0001 7.49998 10.0001H12.5C12.9602 10.0001 13.3333 10.3732 13.3333 10.8334C13.3333 11.2937 12.9602 11.6667 12.5 11.6667H7.49998C7.03974 11.6667 6.66665 11.2937 6.66665 10.8334Z" fill="#0B1015"/>
<path fill-rule="evenodd" clip-rule="evenodd" d="M6.66665 8.33342C6.66665 7.87318 7.03974 7.50008 7.49998 7.50008H12.5C12.9602 7.50008 13.3333 7.87318 13.3333 8.33342C13.3333 8.79365 12.9602 9.16675 12.5 9.16675H7.49998C7.03974 9.16675 6.66665 8.79365 6.66665 8.33342Z" fill="#0B1015"/>
<path fill-rule="evenodd" clip-rule="evenodd" d="M3.33331 6.66675C3.33331 5.28604 4.4526 4.16675 5.83331 4.16675H14.1666C15.5474 4.16675 16.6666 5.28604 16.6666 6.66675V15.8334C16.6666 17.2141 15.5474 18.3334 14.1666 18.3334H5.83331C4.4526 18.3334 3.33331 17.2141 3.33331 15.8334V6.66675ZM5.83331 5.83342C5.37308 5.83342 4.99998 6.20651 4.99998 6.66675V15.8334C4.99998 16.2937 5.37308 16.6667 5.83331 16.6667H14.1666C14.6269 16.6667 15 16.2937 15 15.8334V6.66675C15 6.20651 14.6269 5.83342 14.1666 5.83342H5.83331Z" fill="#0B1015"/>
<path d="M9.34293 3.612L10.5602 4.48846V4.48846L9.34293 3.612ZM9.16665 5.00008V6.50008H10.6666V5.00008H9.16665ZM7.49998 5.00008H5.99998V6.50008H7.49998V5.00008ZM7.99037 2.63816L9.20767 3.51462L7.99037 2.63816ZM12.0096 2.63816L13.2269 1.7617L13.2269 1.7617L12.0096 2.63816ZM12.5 5.00008V6.50008H14V5.00008H12.5ZM10.8333 5.00008H9.33331V6.50008H10.8333V5.00008ZM10.657 3.612L11.8743 2.73555L11.8743 2.73554L10.657 3.612ZM10.6666 4.16675C10.6666 4.21374 10.6629 4.24593 10.6603 4.2634C10.6575 4.28243 10.6539 4.29879 10.6494 4.31427C10.643 4.3367 10.6223 4.40224 10.5602 4.48846L8.12562 2.73554C7.77749 3.21907 7.66665 3.78021 7.66665 4.16675H10.6666ZM10.6666 5.00008V4.16675H7.66665V5.00008H10.6666ZM7.49998 6.50008H9.16665V3.50008H7.49998V6.50008ZM5.99998 4.16675V5.00008H8.99998V4.16675H5.99998ZM6.77307 1.7617C6.17577 2.59128 5.99998 3.51636 5.99998 4.16675H8.99998C8.99998 4.09541 9.01107 3.98189 9.04738 3.85462C9.08305 3.72962 9.13673 3.61314 9.20767 3.51462L6.77307 1.7617ZM9.99998 0.166748C8.57263 0.166748 7.45554 0.813825 6.77307 1.7617L9.20767 3.51462C9.28124 3.41243 9.3721 3.33192 9.48283 3.27479C9.59141 3.21876 9.75472 3.16675 9.99998 3.16675V0.166748ZM13.2269 1.7617C12.5444 0.813825 11.4273 0.166748 9.99998 0.166748V3.16675C10.2452 3.16675 10.4085 3.21876 10.5171 3.27479C10.6279 3.33192 10.7187 3.41243 10.7923 3.51462L13.2269 1.7617ZM14 4.16675C14 3.51636 13.8242 2.59128 13.2269 1.7617L10.7923 3.51462C10.8632 3.61314 10.9169 3.72962 10.9526 3.85462C10.9889 3.98189 11 4.09541 11 4.16675H14ZM14 5.00008V4.16675H11V5.00008H14ZM10.8333 6.50008H12.5V3.50008H10.8333V6.50008ZM9.33331 4.16675V5.00008H12.3333V4.16675H9.33331ZM9.43973 4.48846C9.37766 4.40224 9.35698 4.3367 9.35054 4.31427C9.34611 4.29879 9.34249 4.28243 9.33967 4.2634C9.33708 4.24593 9.33331 4.21374 9.33331 4.16675H12.3333C12.3333 3.78021 12.2225 3.21907 11.8743 2.73555L9.43973 4.48846ZM9.99998 4.83341C10.0112 4.83341 9.9056 4.83463 9.75354 4.75624C9.59252 4.67323 9.48986 4.55808 9.43973 4.48846L11.8743 2.73554C11.7287 2.53328 11.4951 2.27884 11.1281 2.08969C10.7702 1.90517 10.3838 1.83341 9.99998 1.83341V4.83341ZM10.5602 4.48846C10.5101 4.55808 10.4074 4.67323 10.2464 4.75624C10.0944 4.83463 9.98871 4.83341 9.99998 4.83341V1.83341C9.61618 1.83341 9.22976 1.90517 8.87182 2.08969C8.50491 2.27884 8.27126 2.53328 8.12562 2.73555L10.5602 4.48846ZM7.49998 11.0001C6.21131 11.0001 5.16665 12.0448 5.16665 13.3334H8.16665C8.16665 13.7016 7.86817 14.0001 7.49998 14.0001V11.0001ZM9.16665 11.0001H7.49998V14.0001H9.16665V11.0001ZM11.5 13.3334C11.5 12.0448 10.4553 11.0001 9.16665 11.0001V14.0001C8.79846 14.0001 8.49998 13.7016 8.49998 13.3334H11.5ZM9.16665 15.6667C10.4553 15.6667 11.5 14.6221 11.5 13.3334H8.49998C8.49998 12.9652 8.79846 12.6667 9.16665 12.6667V15.6667ZM7.49998 15.6667H9.16665V12.6667H7.49998V15.6667ZM5.16665 13.3334C5.16665 14.6221 6.21131 15.6667 7.49998 15.6667V12.6667C7.86817 12.6667 8.16665 12.9652 8.16665 13.3334H5.16665ZM7.49998 8.50008C6.21131 8.50008 5.16665 9.54475 5.16665 10.8334H8.16665C8.16665 11.2016 7.86817 11.5001 7.49998 11.5001V8.50008ZM12.5 8.50008H7.49998V11.5001H12.5V8.50008ZM14.8333 10.8334C14.8333 9.54475 13.7886 8.50008 12.5 8.50008V11.5001C12.1318 11.5001 11.8333 11.2016 11.8333 10.8334H14.8333ZM12.5 13.1667C13.7886 13.1667 14.8333 12.1221 14.8333 10.8334H11.8333C11.8333 10.4652 12.1318 10.1667 12.5 10.1667V13.1667ZM7.49998 13.1667H12.5V10.1667H7.49998V13.1667ZM5.16665 10.8334C5.16665 12.1221 6.21131 13.1667 7.49998 13.1667V10.1667C7.86817 10.1667 8.16665 10.4652 8.16665 10.8334H5.16665ZM7.49998 6.00008C6.21131 6.00008 5.16665 7.04475 5.16665 8.33342H8.16665C8.16665 8.7016 7.86817 9.00008 7.49998 9.00008V6.00008ZM12.5 6.00008H7.49998V9.00008H12.5V6.00008ZM14.8333 8.33342C14.8333 7.04475 13.7886 6.00008 12.5 6.00008V9.00008C12.1318 9.00008 11.8333 8.7016 11.8333 8.33342H14.8333ZM12.5 10.6667C13.7886 10.6667 14.8333 9.62208 14.8333 8.33342H11.8333C11.8333 7.96523 12.1318 7.66675 12.5 7.66675V10.6667ZM7.49998 10.6667H12.5V7.66675H7.49998V10.6667ZM5.16665 8.33342C5.16665 9.62208 6.21131 10.6667 7.49998 10.6667V7.66675C7.86817 7.66675 8.16665 7.96523 8.16665 8.33342H5.16665ZM5.83331 2.66675C3.62417 2.66675 1.83331 4.45761 1.83331 6.66675H4.83331C4.83331 6.11446 5.28103 5.66675 5.83331 5.66675V2.66675ZM14.1666 2.66675H5.83331V5.66675H14.1666V2.66675ZM18.1666 6.66675C18.1666 4.45761 16.3758 2.66675 14.1666 2.66675V5.66675C14.7189 5.66675 15.1666 6.11446 15.1666 6.66675H18.1666ZM18.1666 15.8334V6.66675H15.1666V15.8334H18.1666ZM14.1666 19.8334C16.3758 19.8334 18.1666 18.0426 18.1666 15.8334H15.1666C15.1666 16.3857 14.7189 16.8334 14.1666 16.8334V19.8334ZM5.83331 19.8334H14.1666V16.8334H5.83331V19.8334ZM1.83331 15.8334C1.83331 18.0426 3.62417 19.8334 5.83331 19.8334V16.8334C5.28103 16.8334 4.83331 16.3857 4.83331 15.8334H1.83331ZM1.83331 6.66675V15.8334H4.83331V6.66675H1.83331ZM6.49998 6.66675C6.49998 7.03494 6.2015 7.33342 5.83331 7.33342V4.33342C4.54465 4.33342 3.49998 5.37808 3.49998 6.66675H6.49998ZM6.49998 15.8334V6.66675H3.49998V15.8334H6.49998ZM5.83331 15.1667C6.2015 15.1667 6.49998 15.4652 6.49998 15.8334H3.49998C3.49998 17.1221 4.54465 18.1667 5.83331 18.1667V15.1667ZM14.1666 15.1667H5.83331V18.1667H14.1666V15.1667ZM13.5 15.8334C13.5 15.4652 13.7985 15.1667 14.1666 15.1667V18.1667C15.4553 18.1667 16.5 17.1221 16.5 15.8334H13.5ZM13.5 6.66675V15.8334H16.5V6.66675H13.5ZM14.1666 7.33342C13.7985 7.33342 13.5 7.03494 13.5 6.66675H16.5C16.5 5.37808 15.4553 4.33342 14.1666 4.33342V7.33342ZM5.83331 7.33342H14.1666V4.33342H5.83331V7.33342Z" fill="#71787B" mask="url(#path-1-inside-1_2001_105396)"/>
</svg>
