<svg width="80" height="80" viewBox="0 0 80 80" fill="none" xmlns="http://www.w3.org/2000/svg">
<rect width="80" height="80" rx="40" fill="#CFFFE5"/>
<path fill-rule="evenodd" clip-rule="evenodd" d="M47.159 36.0092L39.5456 46.0092C39.2323 46.4209 38.7473 46.6642 38.2306 46.6675H38.219C37.7073 46.6675 37.224 46.4309 36.9073 46.0275L32.854 40.8492C32.2873 40.1259 32.414 39.0775 33.139 38.5109C33.8623 37.9425 34.9123 38.0692 35.479 38.7959L38.2006 42.2725L44.5073 33.9909C45.064 33.2592 46.109 33.1159 46.844 33.6742C47.5756 34.2325 47.7173 35.2775 47.159 36.0092ZM40.0007 23.3335C30.7957 23.3335 23.334 30.7952 23.334 40.0002C23.334 49.2035 30.7957 56.6668 40.0007 56.6668C49.2057 56.6668 56.6673 49.2035 56.6673 40.0002C56.6673 30.7952 49.2057 23.3335 40.0007 23.3335Z" fill="#189E54"/>
<mask id="mask0_1150_165397" style="mask-type:luminance" maskUnits="userSpaceOnUse" x="23" y="23" width="34" height="34">
<path fill-rule="evenodd" clip-rule="evenodd" d="M47.159 36.0092L39.5456 46.0092C39.2323 46.4209 38.7473 46.6642 38.2306 46.6675H38.219C37.7073 46.6675 37.224 46.4309 36.9073 46.0275L32.854 40.8492C32.2873 40.1259 32.414 39.0775 33.139 38.5109C33.8623 37.9425 34.9123 38.0692 35.479 38.7959L38.2006 42.2725L44.5073 33.9909C45.064 33.2592 46.109 33.1159 46.844 33.6742C47.5756 34.2325 47.7173 35.2775 47.159 36.0092ZM40.0007 23.3335C30.7957 23.3335 23.334 30.7952 23.334 40.0002C23.334 49.2035 30.7957 56.6668 40.0007 56.6668C49.2057 56.6668 56.6673 49.2035 56.6673 40.0002C56.6673 30.7952 49.2057 23.3335 40.0007 23.3335Z" fill="white"/>
</mask>
<g mask="url(#mask0_1150_165397)">
<rect x="20" y="20" width="40" height="40" fill="#189E54"/>
</g>
</svg>
