<svg width="88" height="80" viewBox="0 0 88 80" fill="none" xmlns="http://www.w3.org/2000/svg">
<path d="M33.4823 53.0612C32.0311 50.7029 29.5821 47.7097 27.1331 44.898C24.9562 42.449 22.6887 39.9093 21.1467 37.551C20.0583 35.8277 17.9721 35.8277 16.5209 36.7347C14.7068 37.8231 13.437 40.2721 15.3417 43.9002C16.3394 45.8957 18.6977 48.4354 21.2374 51.2472C21.4188 51.4286 21.5095 51.61 21.6909 51.7914C22.2351 52.4263 22.1444 53.424 21.4188 53.9682C20.8746 54.3311 20.0583 54.1497 19.6048 53.6961C19.514 53.5147 19.3326 53.424 19.2419 53.2426C17.2465 51.0658 15.5231 49.161 14.2533 47.4376C13.7091 46.712 13.2555 45.9864 12.8927 45.3515C11.4415 42.449 11.3508 39.9093 12.1671 38.0045C10.8066 35.102 9.71813 32.381 9.17391 30.6576C7.54126 25.5782 0.647838 26.8481 0.919947 32.2902C1.19206 37.7324 3.18752 56.0544 8.44829 62.2222C10.8973 65.034 15.251 68.8435 19.8769 72.1088C20.6025 72.6531 21.056 73.4694 21.056 74.2857V78.0045C21.056 79.093 21.963 80 23.0515 80H36.1127C37.2918 80 38.1989 79.093 38.1082 77.9138C38.0175 75.6463 37.9268 72.0181 37.7453 68.7528C37.0197 61.9501 35.0243 55.6916 33.4823 53.0612Z" fill="white"/>
<path d="M78.5615 30.3855C78.0173 32.1088 76.8382 34.8299 75.5683 37.7324C76.294 39.7279 76.294 42.2676 74.8427 45.0794C74.4799 45.7143 74.0264 46.4399 73.4822 47.1655C72.2123 48.9796 70.3983 50.8844 68.4935 52.9705C68.4028 53.1519 68.2214 53.2426 68.1307 53.424C67.6772 53.9683 66.8609 54.059 66.3166 53.6961C65.591 53.2426 65.5003 52.1542 66.0445 51.5193C66.2259 51.3379 66.3166 51.1565 66.4981 50.9751C69.0377 48.254 71.396 45.6236 72.3937 43.6281C74.2985 39.9093 73.0287 37.4603 71.2146 36.4626C69.7634 35.5556 67.6772 35.5556 66.5888 37.2789C64.9561 39.7279 62.7792 42.2676 60.6024 44.6258C58.0627 47.4376 55.6137 50.4308 54.2532 52.7891C52.7112 55.4195 50.625 61.678 50.2622 68.2993C50.0808 71.5646 49.9901 75.1927 49.8994 77.4603C49.8994 78.6395 50.8064 79.5465 51.8949 79.5465H64.9561C66.0445 79.5465 66.9516 78.6394 66.9516 77.551V73.8322C66.9516 72.9252 67.4051 72.1088 68.1307 71.6553C72.7566 68.4807 77.1103 64.6712 79.5593 61.7687C84.9107 55.6009 86.8155 37.2789 87.0876 31.8367C87.0876 26.576 80.1942 25.3061 78.5615 30.3855Z" fill="white"/>
<path d="M55.5231 38.7302C58.3349 38.5488 60.6025 36.2812 60.7839 33.4694L60.9653 30.7483C61.056 29.5692 61.5095 28.39 62.3258 27.483L64.0492 25.3968C65.8632 23.22 65.8632 20.0454 64.0492 17.9592L62.3258 15.873C61.5095 14.966 61.056 13.7868 60.9653 12.6077L60.7839 9.88662C60.6025 7.07483 58.3349 4.80726 55.5231 4.62585L52.802 4.44444C51.6229 4.35374 50.4437 3.90023 49.5367 3.0839L47.4505 1.36054C45.2737 -0.453515 42.0991 -0.453515 40.0129 1.36054L37.9267 3.0839C37.0197 3.90023 35.8406 4.35374 34.6614 4.44444L31.9403 4.62585C29.1285 4.80726 26.861 7.07483 26.6796 9.88662L26.4982 12.6077C26.4075 13.7868 25.9539 14.966 25.1376 15.873L23.4143 17.9592C21.6002 20.1361 21.6002 23.3107 23.4143 25.3968L25.1376 27.483C25.9539 28.39 26.4075 29.5692 26.4982 30.7483L26.6796 33.4694C26.861 36.2812 29.1285 38.5488 31.9403 38.7302L34.6614 38.9116C35.8406 39.0023 37.0197 39.4558 37.9267 40.2721L40.0129 41.9955C42.1898 43.8095 45.3644 43.8095 47.4505 41.9955L49.5367 40.2721C50.4437 39.4558 51.6229 39.0023 52.802 38.9116L55.5231 38.7302ZM43.7317 33.7415C37.1104 33.7415 31.6682 28.2993 31.6682 21.678C31.6682 15.0567 37.1104 9.61451 43.7317 9.61451C50.353 9.61451 55.7952 15.0567 55.7952 21.678C55.7952 28.2993 50.353 33.7415 43.7317 33.7415Z" fill="white"/>
<path d="M50.5345 18.5034L47.1785 17.8685C46.8157 17.7778 46.5435 17.5964 46.3621 17.3243L44.7295 14.3311C44.276 13.5147 43.1875 13.5147 42.734 14.3311L41.1014 17.3243C40.92 17.5964 40.6479 17.8685 40.285 17.8685L36.929 18.5034C36.022 18.6848 35.6592 19.7732 36.2941 20.4082L38.6524 22.9478C38.9245 23.2199 39.0152 23.4921 38.9245 23.8549L38.471 27.2109C38.3803 28.1179 39.2873 28.7528 40.1036 28.39L43.1875 26.9388C43.4596 26.7574 43.8225 26.7574 44.1853 26.9388L47.2692 28.39C48.0855 28.7528 48.9925 28.1179 48.9018 27.2109L48.4483 23.8549C48.4483 23.4921 48.539 23.2199 48.7204 22.9478L51.0787 20.4082C51.8043 19.7732 51.4415 18.6848 50.5345 18.5034Z" fill="white"/>
</svg>
