<svg width="40" height="40" viewBox="0 0 40 40" fill="none" xmlns="http://www.w3.org/2000/svg">
<rect width="40" height="40" rx="20" fill="white" fill-opacity="0.1"/>
<path fill-rule="evenodd" clip-rule="evenodd" d="M19.9993 12.5C22.1502 12.5 24.0452 13.8842 24.7285 15.8708C26.761 16.1467 28.3327 17.8933 28.3327 20C28.3327 21.0175 27.9627 21.9967 27.291 22.7575C27.126 22.9433 26.8968 23.0392 26.666 23.0392C26.4702 23.0392 26.2735 22.9708 26.1143 22.8308C25.7702 22.525 25.7368 21.9992 26.0418 21.6533C26.4443 21.1983 26.666 20.61 26.666 20C26.666 18.6217 25.5443 17.5 24.166 17.5H24.0827C23.686 17.5 23.3443 17.22 23.266 16.8308C22.9543 15.2875 21.581 14.1667 19.9993 14.1667C18.4185 14.1667 17.0443 15.2875 16.7335 16.8308C16.6552 17.22 16.3127 17.5 15.916 17.5H15.8327C14.4543 17.5 13.3327 18.6217 13.3327 20C13.3327 20.61 13.5543 21.1983 13.9577 21.6533C14.2618 21.9992 14.2293 22.525 13.8843 22.8308C13.5393 23.1358 13.0127 23.1017 12.7085 22.7575C12.036 21.9967 11.666 21.0175 11.666 20C11.666 17.8933 13.2377 16.1467 15.2702 15.8708C15.9543 13.8842 17.8493 12.5 19.9993 12.5ZM19.4203 19.4001C19.7487 19.0867 20.2678 19.0892 20.5887 19.4109L23.0887 21.9109C23.4145 22.2367 23.4145 22.7634 23.0887 23.0892C22.9262 23.2517 22.7128 23.3334 22.4995 23.3334C22.2862 23.3334 22.0728 23.2517 21.9103 23.0892L20.8328 22.0117V26.6667C20.8328 27.1276 20.4595 27.5001 19.9995 27.5001C19.5395 27.5001 19.1662 27.1276 19.1662 26.6667V21.9634L18.0787 23.0134C17.7478 23.3342 17.2203 23.3234 16.9003 22.9926C16.5803 22.6609 16.5895 22.1342 16.9203 21.8142L19.4203 19.4001Z" fill="white"/>
<mask id="mask0_1097_303522" style="mask-type:luminance" maskUnits="userSpaceOnUse" x="11" y="12" width="18" height="16">
<path fill-rule="evenodd" clip-rule="evenodd" d="M19.9993 12.5C22.1502 12.5 24.0452 13.8842 24.7285 15.8708C26.761 16.1467 28.3327 17.8933 28.3327 20C28.3327 21.0175 27.9627 21.9967 27.291 22.7575C27.126 22.9433 26.8968 23.0392 26.666 23.0392C26.4702 23.0392 26.2735 22.9708 26.1143 22.8308C25.7702 22.525 25.7368 21.9992 26.0418 21.6533C26.4443 21.1983 26.666 20.61 26.666 20C26.666 18.6217 25.5443 17.5 24.166 17.5H24.0827C23.686 17.5 23.3443 17.22 23.266 16.8308C22.9543 15.2875 21.581 14.1667 19.9993 14.1667C18.4185 14.1667 17.0443 15.2875 16.7335 16.8308C16.6552 17.22 16.3127 17.5 15.916 17.5H15.8327C14.4543 17.5 13.3327 18.6217 13.3327 20C13.3327 20.61 13.5543 21.1983 13.9577 21.6533C14.2618 21.9992 14.2293 22.525 13.8843 22.8308C13.5393 23.1358 13.0127 23.1017 12.7085 22.7575C12.036 21.9967 11.666 21.0175 11.666 20C11.666 17.8933 13.2377 16.1467 15.2702 15.8708C15.9543 13.8842 17.8493 12.5 19.9993 12.5ZM19.4203 19.4001C19.7487 19.0867 20.2678 19.0892 20.5887 19.4109L23.0887 21.9109C23.4145 22.2367 23.4145 22.7634 23.0887 23.0892C22.9262 23.2517 22.7128 23.3334 22.4995 23.3334C22.2862 23.3334 22.0728 23.2517 21.9103 23.0892L20.8328 22.0117V26.6667C20.8328 27.1276 20.4595 27.5001 19.9995 27.5001C19.5395 27.5001 19.1662 27.1276 19.1662 26.6667V21.9634L18.0787 23.0134C17.7478 23.3342 17.2203 23.3234 16.9003 22.9926C16.5803 22.6609 16.5895 22.1342 16.9203 21.8142L19.4203 19.4001Z" fill="white"/>
</mask>
<g mask="url(#mask0_1097_303522)">
<rect x="10" y="10" width="20" height="20" fill="white"/>
</g>
</svg>
