<svg width="20" height="20" viewBox="0 0 20 20" fill="none" xmlns="http://www.w3.org/2000/svg">
<mask id="path-1-inside-1_2001_105366" fill="white">
<path fill-rule="evenodd" clip-rule="evenodd" d="M20 12.8967H15.7695C14.2162 12.8956 12.9572 11.5331 12.9562 9.85092C12.9562 8.16869 14.2162 6.80621 15.7695 6.80518H20"/>
</mask>
<path d="M20 14.3967C20.8284 14.3967 21.5 13.7251 21.5 12.8967C21.5 12.0682 20.8284 11.3967 20 11.3967V14.3967ZM15.7695 12.8967L15.7685 14.3967H15.7695V12.8967ZM12.9562 9.85092H11.4562L11.4562 9.85177L12.9562 9.85092ZM15.7695 6.80518V5.30518L15.7685 5.30518L15.7695 6.80518ZM20 8.30518C20.8284 8.30518 21.5 7.6336 21.5 6.80518C21.5 5.97675 20.8284 5.30518 20 5.30518V8.30518ZM20 11.3967H15.7695V14.3967H20V11.3967ZM15.7705 11.3967C15.1544 11.3963 14.4568 10.8185 14.4562 9.85007L11.4562 9.85177C11.4576 12.2478 13.278 14.395 15.7685 14.3967L15.7705 11.3967ZM14.4562 9.85092C14.4562 8.88393 15.1537 8.30559 15.7705 8.30518L15.7685 5.30518C13.2787 5.30683 11.4562 7.45346 11.4562 9.85092H14.4562ZM15.7695 8.30518H20V5.30518H15.7695V8.30518Z" fill="#71787B" mask="url(#path-1-inside-1_2001_105366)"/>
<path d="M16.2485 9.78149H15.9225" stroke="#71787B" stroke-width="1.5" stroke-linecap="round" stroke-linejoin="round"/>
<path d="M5.48376 0.75H14.5161C17.0752 0.75 19.2498 3.01576 19.2498 5.93884V14.0612C19.2498 16.9842 17.0752 19.25 14.5161 19.25H5.48376C2.92461 19.25 0.75 16.9842 0.75 14.0612V5.93884C0.75 3.01576 2.92461 0.75 5.48376 0.75Z" stroke="#71787B" stroke-width="1.5" stroke-linecap="round" stroke-linejoin="round"/>
<path d="M4.74005 5.13574H10.382" stroke="#71787B" stroke-width="1.5" stroke-linecap="round" stroke-linejoin="round"/>
</svg>
