<svg width="40" height="40" viewBox="0 0 40 40" fill="none" xmlns="http://www.w3.org/2000/svg">
<g clip-path="url(#clip0_1365_52121)">
<path d="M40 0H0V40H40V0Z" fill="#0B1015"/>
<path d="M27.5107 12.6707H24.9247C24.5287 10.7287 22.82 9.33332 20.8373 9.33398H19.1693C17.1867 9.33332 15.478 10.7287 15.082 12.6707H12.496C10.192 12.6707 8.32468 14.538 8.32468 16.8413V21.8467C8.31868 22.75 8.61201 23.63 9.15934 24.3493H9.18668V26.9887C9.18668 29.4773 11.2047 31.4953 13.6933 31.4953H26.3127C27.506 31.4953 28.59 31.0307 29.396 30.2733H29.3973V30.2727C30.272 29.45 30.8193 28.2833 30.8193 26.9887V24.3493H30.8473C31.3947 23.63 31.688 22.75 31.682 21.8467V16.8413C31.682 14.538 29.8147 12.6707 27.5107 12.6707ZM19.1693 11.002H20.8373C21.8953 11.0053 22.8373 11.6733 23.19 12.6707H16.8167C17.1693 11.6733 18.1113 11.0053 19.1693 11.002Z" fill="white"/>
<path d="M31.466 17.4313C30.6673 17.166 29.788 17.324 29.1313 17.8493L27.8206 18.8973L22.2233 18.1093C22.0333 18.0827 21.8373 18.1307 21.682 18.2487L20.8593 18.8627L25.5266 20.734L24.0146 21.9427L21.8326 21.8727C21.6533 21.8673 21.4786 21.9233 21.3366 22.0333L20.9933 22.2987L21.3206 22.486L23.264 23.5633C25.1966 22.684 27.282 21.4507 29.494 19.7513L31.59 18.162C31.858 17.958 31.7886 17.5373 31.4693 17.43L31.466 17.4313Z" fill="#0B1015"/>
<path d="M25.5573 24.6287L26.3213 24.4787C26.5173 24.4413 26.6833 24.3207 26.7853 24.1487L28.5086 21.2C27.718 21.768 26.9433 22.2773 26.1873 22.7333L25.56 24.6287H25.5573Z" fill="#0B1015"/>
<path d="M8.54333 24.09C8.54333 24.09 13.9473 27.462 22.512 23.8913L21.6753 23.334C20.0347 24.224 14.9173 26.4707 8.54266 24.0927V24.09H8.54333Z" fill="#0B1015"/>
</g>
<defs>
<clipPath id="clip0_1365_52121">
<rect width="40" height="40" rx="12" fill="white"/>
</clipPath>
</defs>
</svg>
