<svg width="40" height="40" viewBox="0 0 40 40" fill="none" xmlns="http://www.w3.org/2000/svg">
<g clip-path="url(#clip0_1365_102682)">
<path d="M40 0H0V40H40V0Z" fill="white"/>
<path d="M27.5103 12.6707H24.9243C24.5283 10.7287 22.8196 9.33332 20.837 9.33398H19.169C17.1863 9.33332 15.4776 10.7287 15.0816 12.6707H12.4956C10.1916 12.6707 8.32431 14.538 8.32431 16.8413V21.8467C8.31831 22.75 8.61164 23.63 9.15898 24.3493H9.18631V26.9887C9.18631 29.4773 11.2043 31.4953 13.693 31.4953H26.3123C27.5056 31.4953 28.5896 31.0307 29.3956 30.2733H29.397V30.2727C30.2716 29.45 30.819 28.2833 30.819 26.9887V24.3493H30.847C31.3943 23.63 31.6876 22.75 31.6816 21.8467V16.8413C31.6816 14.538 29.8143 12.6707 27.5103 12.6707ZM19.169 11.002H20.837C21.895 11.0053 22.837 11.6733 23.1896 12.6707H16.8163C17.169 11.6733 18.111 11.0053 19.169 11.002Z" fill="#0B1015"/>
<path d="M31.466 17.4313C30.6674 17.166 29.788 17.324 29.1314 17.8493L27.8207 18.8973L22.2234 18.1093C22.0334 18.0827 21.8374 18.1307 21.682 18.2487L20.8594 18.8627L25.5267 20.734L24.0147 21.9427L21.8327 21.8727C21.6534 21.8673 21.4787 21.9233 21.3367 22.0333L20.9934 22.2987L21.3207 22.486L23.264 23.5633C25.1967 22.684 27.282 21.4507 29.494 19.7513L31.59 18.162C31.858 17.958 31.7887 17.5373 31.4694 17.43L31.466 17.4313Z" fill="white"/>
<path d="M25.5576 24.6287L26.3216 24.4787C26.5176 24.4413 26.6836 24.3207 26.7856 24.1487L28.509 21.2C27.7183 21.768 26.9436 22.2773 26.1876 22.7333L25.5603 24.6287H25.5576Z" fill="white"/>
<path d="M8.54364 24.09C8.54364 24.09 13.9476 27.462 22.5123 23.8913L21.6756 23.334C20.035 24.224 14.9176 26.4707 8.54297 24.0927V24.09H8.54364Z" fill="white"/>
</g>
<defs>
<clipPath id="clip0_1365_102682">
<rect width="40" height="40" rx="12" fill="white"/>
</clipPath>
</defs>
</svg>
