<svg width="40" height="40" viewBox="0 0 40 40" fill="none" xmlns="http://www.w3.org/2000/svg">
<rect width="40" height="40" rx="20" fill="white"/>
<path d="M9.18813 16.0354H10.3497V20.5808C10.3476 20.9975 10.2593 21.3563 10.0846 21.6572C9.90993 21.956 9.66583 22.1864 9.35227 22.3485C9.04083 22.5084 8.67782 22.5884 8.26326 22.5884C7.88447 22.5884 7.54356 22.521 7.24053 22.3864C6.9396 22.2496 6.70076 22.0476 6.52399 21.7803C6.34722 21.513 6.25884 21.1806 6.25884 20.7828H7.42361C7.42572 20.9575 7.46359 21.108 7.53725 21.2342C7.61301 21.3605 7.71717 21.4573 7.84975 21.5246C7.98232 21.592 8.13489 21.6256 8.30745 21.6256C8.49474 21.6256 8.65362 21.5867 8.78409 21.5088C8.91456 21.4289 9.01347 21.311 9.08081 21.1553C9.15025 20.9996 9.18603 20.8081 9.18813 20.5808V16.0354ZM14.5735 22.5947C14.1001 22.5947 13.6897 22.4905 13.3425 22.2822C12.9953 22.0739 12.7259 21.7824 12.5344 21.4078C12.345 21.0332 12.2503 20.5955 12.2503 20.0947C12.2503 19.5939 12.345 19.1551 12.5344 18.7784C12.7259 18.4017 12.9953 18.1092 13.3425 17.9009C13.6897 17.6926 14.1001 17.5884 14.5735 17.5884C15.047 17.5884 15.4574 17.6926 15.8046 17.9009C16.1518 18.1092 16.4201 18.4017 16.6095 18.7784C16.801 19.1551 16.8968 19.5939 16.8968 20.0947C16.8968 20.5955 16.801 21.0332 16.6095 21.4078C16.4201 21.7824 16.1518 22.0739 15.8046 22.2822C15.4574 22.4905 15.047 22.5947 14.5735 22.5947ZM14.5799 21.6793C14.8366 21.6793 15.0512 21.6088 15.2238 21.4678C15.3964 21.3247 15.5247 21.1332 15.6089 20.8933C15.6952 20.6534 15.7383 20.3862 15.7383 20.0915C15.7383 19.7948 15.6952 19.5265 15.6089 19.2866C15.5247 19.0446 15.3964 18.8521 15.2238 18.709C15.0512 18.5659 14.8366 18.4943 14.5799 18.4943C14.3168 18.4943 14.098 18.5659 13.9233 18.709C13.7507 18.8521 13.6213 19.0446 13.535 19.2866C13.4509 19.5265 13.4088 19.7948 13.4088 20.0915C13.4088 20.3862 13.4509 20.6534 13.535 20.8933C13.6213 21.1332 13.7507 21.3247 13.9233 21.4678C14.098 21.6088 14.3168 21.6793 14.5799 21.6793ZM18.806 22.5V16.0354H19.9487V18.4533H19.9961C20.055 18.3354 20.1381 18.2102 20.2454 18.0777C20.3527 17.943 20.4979 17.8283 20.681 17.7336C20.8641 17.6368 21.0977 17.5884 21.3818 17.5884C21.7564 17.5884 22.0941 17.6841 22.395 17.8756C22.6981 18.065 22.938 18.346 23.1147 18.7184C23.2936 19.0888 23.3831 19.5433 23.3831 20.0821C23.3831 20.6145 23.2957 21.0669 23.1211 21.4394C22.9464 21.8119 22.7086 22.096 22.4077 22.2917C22.1067 22.4874 21.7658 22.5852 21.3849 22.5852C21.1072 22.5852 20.8767 22.5389 20.6937 22.4463C20.5106 22.3537 20.3633 22.2422 20.2517 22.1117C20.1423 21.9792 20.0571 21.854 19.9961 21.7361H19.9298V22.5H18.806ZM19.9266 20.0758C19.9266 20.3893 19.9708 20.6639 20.0592 20.8996C20.1497 21.1353 20.2791 21.3194 20.4474 21.452C20.6179 21.5825 20.8241 21.6477 21.0661 21.6477C21.3187 21.6477 21.5301 21.5804 21.7006 21.4457C21.8711 21.3089 21.9994 21.1227 22.0857 20.887C22.1741 20.6492 22.2183 20.3788 22.2183 20.0758C22.2183 19.7748 22.1751 19.5076 22.0889 19.274C22.0026 19.0404 21.8742 18.8573 21.7038 18.7247C21.5333 18.5922 21.3208 18.5259 21.0661 18.5259C20.822 18.5259 20.6147 18.5901 20.4443 18.7184C20.2738 18.8468 20.1444 19.0267 20.056 19.2582C19.9698 19.4897 19.9266 19.7622 19.9266 20.0758ZM26.465 16.0354V22.5H25.2939V16.0354H26.465ZM29.7142 19.6591V22.5H28.5715V17.6515H29.6637V18.4754H29.7205C29.832 18.2039 30.0098 17.9882 30.2539 17.8283C30.5002 17.6683 30.8042 17.5884 31.1662 17.5884C31.5008 17.5884 31.7922 17.6599 32.0406 17.803C32.291 17.9461 32.4846 18.1534 32.6214 18.4249C32.7603 18.6963 32.8287 19.0257 32.8265 19.4129V22.5H31.6839V19.5896C31.6839 19.2656 31.5997 19.012 31.4313 18.8289C31.2651 18.6458 31.0347 18.5543 30.7401 18.5543C30.5401 18.5543 30.3623 18.5985 30.2066 18.6869C30.053 18.7731 29.932 18.8984 29.8436 19.0625C29.7573 19.2266 29.7142 19.4255 29.7142 19.6591Z" fill="#0B1015"/>
</svg>
