<svg width="182" height="48" viewBox="0 0 182 48" fill="none" xmlns="http://www.w3.org/2000/svg">
<g clip-path="url(#clip0_1553_159520)">
<path d="M48 0H0V48H48V0Z" fill="#0B1015"/>
<path d="M33.0128 15.2047H29.9096C29.4344 12.8743 27.384 11.1999 25.0048 11.2007H23.0032C20.624 11.1999 18.5736 12.8743 18.0984 15.2047H14.9952C12.2304 15.2047 9.98961 17.4455 9.98961 20.2095V26.2159C9.98241 27.2999 10.3344 28.3559 10.9912 29.2191H11.024V32.3863C11.024 35.3727 13.4456 37.7943 16.432 37.7943H31.5752C33.0072 37.7943 34.308 37.2367 35.2752 36.3279H35.2768V36.3271C36.3264 35.3399 36.9832 33.9399 36.9832 32.3863V29.2191H37.0168C37.6736 28.3559 38.0256 27.2999 38.0184 26.2159V20.2095C38.0184 17.4455 35.7776 15.2047 33.0128 15.2047ZM23.0032 13.2023H25.0048C26.2744 13.2063 27.4048 14.0079 27.828 15.2047H20.18C20.6032 14.0079 21.7336 13.2063 23.0032 13.2023Z" fill="white"/>
<path d="M37.7592 20.9174C36.8008 20.599 35.7456 20.7886 34.9576 21.419L33.3848 22.6766L26.668 21.731C26.44 21.699 26.2048 21.7566 26.0184 21.8982L25.0312 22.635L30.632 24.8806L28.8176 26.331L26.1992 26.247C25.984 26.2406 25.7744 26.3078 25.604 26.4398L25.192 26.7582L25.5848 26.983L27.9168 28.2758C30.236 27.2206 32.7384 25.7406 35.3928 23.7014L37.908 21.7942C38.2296 21.5494 38.1464 21.0446 37.7632 20.9158L37.7592 20.9174Z" fill="#0B1015"/>
<path d="M30.6688 29.5543L31.5856 29.3743C31.8208 29.3295 32.02 29.1847 32.1424 28.9783L34.2104 25.4399C33.2616 26.1215 32.332 26.7327 31.4248 27.2799L30.672 29.5543H30.6688Z" fill="#0B1015"/>
<path d="M10.252 28.9077C10.252 28.9077 16.7368 32.9541 27.0144 28.6693L26.0104 28.0005C24.0416 29.0685 17.9008 31.7645 10.2512 28.9109V28.9077H10.252Z" fill="#0B1015"/>
</g>
<path d="M63.462 32.26C59.874 32.26 57.352 30.362 56.26 26.826L59.432 24.304C59.822 26.8 61.018 28.672 63.41 28.672C65.334 28.672 66.244 27.814 66.244 25.006V14.58H69.962V25.474C69.962 30.362 67.57 32.26 63.462 32.26ZM78.229 32.26C74.355 32.26 71.859 29.53 71.859 25.63C71.859 21.756 74.355 19 78.229 19C82.207 19 84.729 21.756 84.729 25.63C84.729 29.53 82.207 32.26 78.229 32.26ZM78.281 29.244C79.867 29.244 80.959 28.23 80.959 25.63C80.959 23.004 79.867 22.016 78.281 22.016C76.721 22.016 75.629 23.004 75.629 25.63C75.629 28.23 76.721 29.244 78.281 29.244ZM90.5473 32H86.8293V14.58H90.5473V22.9C90.9113 20.846 91.9513 19 94.6033 19C97.5673 19 99.5173 21.418 99.5173 25.63C99.5173 29.868 97.5673 32.286 94.4473 32.286C91.7953 32.286 90.8853 30.466 90.5473 28.412V32ZM90.5473 26.332C90.5473 28.412 91.4053 29.374 92.9653 29.374C94.6553 29.374 95.7213 28.074 95.7213 25.63C95.7213 23.212 94.6553 21.886 92.9653 21.886C91.4053 21.886 90.5473 22.874 90.5473 24.954V26.332ZM105.352 32H101.634V14.58H109.72C113.49 14.58 116.246 16.322 116.246 20.014C116.246 23.108 114.14 24.694 111.306 25.032C112.684 25.396 113.412 26.254 114.166 27.476L116.922 32H112.632L109.694 27.06C109.018 25.89 108.238 25.474 106.704 25.474H105.352V32ZM109.59 17.882H105.352V22.484H109.59C111.202 22.484 112.346 21.834 112.346 20.196C112.346 18.506 111.202 17.882 109.59 17.882ZM123.678 32.26C119.804 32.26 117.308 29.53 117.308 25.63C117.308 21.756 119.804 19 123.678 19C127.656 19 130.178 21.756 130.178 25.63C130.178 29.53 127.656 32.26 123.678 32.26ZM123.73 29.244C125.316 29.244 126.408 28.23 126.408 25.63C126.408 23.004 125.316 22.016 123.73 22.016C122.17 22.016 121.078 23.004 121.078 25.63C121.078 28.23 122.17 29.244 123.73 29.244ZM136.076 32.26C133.658 32.26 132.15 30.778 132.15 28.152V19.26H135.868V26.852C135.868 28.412 136.284 29.374 138 29.374C139.768 29.374 140.314 28.386 140.314 26.306V19.26H144.032V32H140.314V28.438C139.872 30.466 138.65 32.26 136.076 32.26ZM151.389 32.26C148.581 32.26 147.255 30.596 147.255 28.23V22.094H145.357V19.26H147.255V17.752L150.973 15.802V19.26H154.509V22.094H150.973V27.554C150.973 28.594 151.493 28.958 152.221 28.958C153.027 28.958 153.729 28.308 154.119 27.606L155.185 30.648C154.639 31.35 153.339 32.26 151.389 32.26ZM162.049 32.26C157.993 32.26 155.523 29.556 155.523 25.63C155.523 21.704 157.993 19 161.737 19C165.793 19 167.821 21.704 167.821 25.032C167.821 25.578 167.769 26.306 167.691 26.592H159.007C159.241 28.386 160.437 29.244 162.101 29.244C163.895 29.244 164.857 28.464 165.325 27.372L167.587 29.634C166.625 31.012 164.909 32.26 162.049 32.26ZM161.763 21.86C160.177 21.86 159.189 22.744 159.007 24.46H164.467C164.337 22.77 163.427 21.86 161.763 21.86ZM175.372 32.26C172.538 32.26 170.016 31.22 168.924 29.686L170.64 27.164C171.706 28.308 173.552 29.426 175.476 29.426C176.49 29.426 177.088 29.114 177.088 28.438C177.088 27.762 176.36 27.502 175.008 27.164L173.292 26.748C171.004 26.15 169.34 25.24 169.34 23.004C169.34 20.508 171.368 19.026 174.488 19.026C177.244 19.026 179.246 20.222 180.13 21.34L178.466 23.836C177.218 22.536 175.658 21.834 174.176 21.834C173.266 21.834 172.72 22.172 172.72 22.796C172.72 23.472 173.266 23.732 174.956 24.2L176.386 24.59C179.194 25.344 180.416 26.436 180.416 28.386C180.416 30.856 178.336 32.26 175.372 32.26Z" fill="#0B1015"/>
<defs>
<clipPath id="clip0_1553_159520">
<rect width="48" height="48" rx="12" fill="white"/>
</clipPath>
</defs>
</svg>
